<?xml version="1.0" encoding="UTF-8" standalone="no"?>
<!DOCTYPE svg PUBLIC "-//W3C//DTD SVG 1.1//EN" "http://www.w3.org/Graphics/SVG/1.1/DTD/svg11.dtd">
<svg width="100%" height="100%" viewBox="0 0 712 690" version="1.1" xmlns="http://www.w3.org/2000/svg" xmlns:xlink="http://www.w3.org/1999/xlink" xml:space="preserve" xmlns:serif="http://www.serif.com/" style="fill-rule:evenodd;clip-rule:evenodd;stroke-miterlimit:10;">
    <path d="M-470.002,559.748L-371.566,559.748C-367.208,559.748 -361.119,557.491 -358.034,554.733L-335.243,534.348C-332.159,531.59 -326.07,529.333 -321.711,529.333L-282.641,529.333C-278.282,529.333 -272.193,527.077 -269.108,524.319L-170.468,436.095C-167.384,433.336 -164.861,427.89 -164.861,423.992L-164.861,325.106C-164.861,321.208 -162.338,315.762 -159.254,313.003L-32.717,199.829C-29.633,197.071 -27.11,191.625 -27.11,187.726L-27.11,172.274C-27.11,168.376 -24.587,162.929 -21.503,160.171L115.931,37.251C119.015,34.492 125.104,32.236 129.463,32.236L142.817,32.236C147.176,32.236 153.265,29.98 156.349,27.221L212.485,-22.987C215.569,-25.745 221.658,-28.002 226.017,-28.002L353.795,-28.002C358.154,-28.002 364.243,-30.258 367.328,-33.016L387.616,-51.162C390.7,-53.92 393.223,-59.367 393.223,-63.265L393.223,-128.789" style="fill:none;fill-rule:nonzero;stroke:black;stroke-width:1px;"/>
    <path d="M-462.971,566.037L-364.535,566.037C-360.176,566.037 -354.087,563.78 -351.003,561.022L-328.211,540.637C-325.127,537.879 -319.038,535.623 -314.679,535.623L-275.609,535.623C-271.25,535.623 -265.161,533.366 -262.077,530.608L-163.436,442.384C-160.352,439.625 -157.829,434.179 -157.829,430.281L-157.829,331.395C-157.829,327.497 -155.306,322.051 -152.222,319.292L-25.685,206.118C-22.601,203.36 -20.078,197.914 -20.078,194.015L-20.078,178.563C-20.078,174.665 -17.555,169.219 -14.471,166.46L122.963,43.54C126.047,40.781 132.136,38.525 136.495,38.525L149.849,38.525C154.207,38.525 160.297,36.269 163.381,33.51L219.517,-16.698C222.601,-19.456 228.69,-21.712 233.049,-21.712L360.827,-21.712C365.186,-21.712 371.275,-23.969 374.359,-26.727L394.648,-44.873C397.732,-47.632 400.255,-53.078 400.255,-56.976L400.255,-122.5" style="fill:none;fill-rule:nonzero;stroke:black;stroke-width:1px;"/>
    <path d="M-455.935,572.33L-357.499,572.33C-353.14,572.33 -347.051,570.073 -343.967,567.315L-321.175,546.93C-318.091,544.172 -312.002,541.916 -307.643,541.916L-268.573,541.916C-264.214,541.916 -258.125,539.659 -255.041,536.901L-156.4,448.677C-153.316,445.918 -150.793,440.472 -150.793,436.574L-150.793,337.688C-150.793,333.79 -148.27,328.344 -145.186,325.585L-18.649,212.411C-15.565,209.653 -13.042,204.207 -13.042,200.308L-13.042,184.856C-13.042,180.958 -10.519,175.512 -7.435,172.753L129.999,49.833C133.083,47.074 139.172,44.818 143.531,44.818L156.885,44.818C161.244,44.818 167.333,42.562 170.417,39.803L226.553,-10.405C229.637,-13.163 235.726,-15.419 240.085,-15.419L367.863,-15.419C372.222,-15.419 378.311,-17.676 381.395,-20.434L401.684,-38.58C404.768,-41.339 407.291,-46.785 407.291,-50.683L407.291,-116.207" style="fill:none;fill-rule:nonzero;stroke:black;stroke-width:1px;"/>
    <path d="M-448.902,578.619L-350.466,578.619C-346.108,578.619 -340.018,576.362 -336.934,573.604L-314.143,553.219C-311.059,550.461 -304.97,548.205 -300.611,548.205L-261.54,548.205C-257.182,548.205 -251.093,545.948 -248.008,543.19L-149.368,454.966C-146.283,452.207 -143.761,446.761 -143.761,442.863L-143.761,343.977C-143.761,340.079 -141.238,334.633 -138.154,331.874L-11.617,218.7C-8.533,215.942 -6.01,210.496 -6.01,206.597L-6.01,191.145C-6.01,187.247 -3.487,181.801 -0.403,179.042L137.031,56.122C140.115,53.363 146.204,51.107 150.563,51.107L163.917,51.107C168.276,51.107 174.365,48.851 177.449,46.092L233.585,-4.116C236.669,-6.874 242.758,-9.13 247.117,-9.13L374.896,-9.13C379.254,-9.13 385.344,-11.387 388.428,-14.145L408.716,-32.291C411.8,-35.049 414.323,-40.496 414.323,-44.394L414.323,-109.918" style="fill:none;fill-rule:nonzero;stroke:black;stroke-width:1px;"/>
    <path d="M-441.869,584.904L-343.433,584.904C-339.074,584.904 -332.985,582.647 -329.901,579.889L-307.109,559.505C-304.025,556.746 -297.936,554.49 -293.577,554.49L-254.507,554.49C-250.148,554.49 -244.059,552.233 -240.975,549.475L-142.334,461.251C-139.25,458.493 -136.727,453.047 -136.727,449.148L-136.727,350.263C-136.727,346.364 -134.204,340.918 -131.12,338.159L-4.583,224.985C-1.499,222.227 1.024,216.781 1.024,212.882L1.024,197.43C1.024,193.532 3.547,188.086 6.631,185.327L144.065,62.407C147.149,59.649 153.238,57.392 157.597,57.392L170.951,57.392C175.309,57.392 181.399,55.136 184.483,52.377L240.619,2.17C243.703,-0.589 249.792,-2.845 254.151,-2.845L381.929,-2.845C386.288,-2.845 392.377,-5.102 395.461,-7.86L415.75,-26.006C418.834,-28.764 421.357,-34.21 421.357,-38.109L421.357,-103.633" style="fill:none;fill-rule:nonzero;stroke:black;stroke-width:1px;"/>
    <path d="M-434.834,591.195L-336.398,591.195C-332.04,591.195 -325.951,588.938 -322.866,586.18L-300.075,565.796C-296.991,563.037 -290.902,560.781 -286.543,560.781L-247.473,560.781C-243.114,560.781 -237.025,558.524 -233.941,555.766L-135.3,467.542C-132.216,464.784 -129.693,459.338 -129.693,455.439L-129.693,356.554C-129.693,352.655 -127.17,347.209 -124.086,344.451L2.451,231.276C5.535,228.518 8.058,223.072 8.058,219.173L8.058,203.721C8.058,199.823 10.581,194.377 13.665,191.618L151.099,68.698C154.183,65.94 160.272,63.683 164.631,63.683L177.985,63.683C182.344,63.683 188.433,61.427 191.517,58.668L247.653,8.461C250.737,5.702 256.826,3.446 261.185,3.446L388.963,3.446C393.322,3.446 399.411,1.189 402.496,-1.569L422.784,-19.715C425.868,-22.473 428.391,-27.919 428.391,-31.818L428.391,-97.342" style="fill:none;fill-rule:nonzero;stroke:black;stroke-width:1px;"/>
    <path d="M-427.803,597.486L-329.367,597.486C-325.008,597.486 -318.919,595.229 -315.835,592.471L-293.043,572.087C-289.959,569.328 -283.87,567.072 -279.511,567.072L-240.441,567.072C-236.082,567.072 -229.993,564.815 -226.909,562.057L-128.268,473.833C-125.184,471.075 -122.661,465.629 -122.661,461.73L-122.661,362.845C-122.661,358.946 -120.138,353.5 -117.054,350.742L9.483,237.567C12.567,234.809 15.09,229.363 15.09,225.464L15.09,210.012C15.09,206.114 17.613,200.668 20.697,197.909L158.131,74.989C161.215,72.231 167.304,69.974 171.663,69.974L185.017,69.974C189.375,69.974 195.465,67.718 198.549,64.959L254.685,14.752C257.769,11.993 263.858,9.737 268.217,9.737L395.995,9.737C400.354,9.737 406.443,7.48 409.527,4.722L429.816,-13.424C432.9,-16.182 435.423,-21.628 435.423,-25.527L435.423,-91.051" style="fill:none;fill-rule:nonzero;stroke:black;stroke-width:1px;"/>
    <path d="M-420.775,603.775L-322.339,603.775C-317.981,603.775 -311.892,601.518 -308.807,598.76L-286.016,578.376C-282.932,575.617 -276.843,573.361 -272.484,573.361L-233.414,573.361C-229.055,573.361 -222.966,571.104 -219.881,568.346L-121.241,480.122C-118.157,477.364 -115.634,471.918 -115.634,468.019L-115.634,369.134C-115.634,365.235 -113.111,359.789 -110.027,357.031L16.51,243.857C19.594,241.098 22.117,235.652 22.117,231.754L22.117,216.301C22.117,212.403 24.64,206.957 27.724,204.198L165.158,81.278C168.242,78.52 174.331,76.263 178.69,76.263L192.044,76.263C196.403,76.263 202.492,74.007 205.576,71.248L261.712,21.041C264.796,18.282 270.885,16.026 275.244,16.026L403.023,16.026C407.381,16.026 413.47,13.769 416.555,11.011L436.843,-7.135C439.927,-9.893 442.45,-15.339 442.45,-19.238L442.45,-84.762" style="fill:none;fill-rule:nonzero;stroke:black;stroke-width:1px;"/>
    <path d="M-413.741,610.068L-315.305,610.068C-310.946,610.068 -304.857,607.811 -301.773,605.053L-278.982,584.669C-275.898,581.91 -269.809,579.654 -265.45,579.654L-226.379,579.654C-222.021,579.654 -215.931,577.397 -212.847,574.639L-114.207,486.415C-111.122,483.657 -108.6,478.211 -108.6,474.312L-108.6,375.427C-108.6,371.528 -106.077,366.082 -102.993,363.324L23.544,250.149C26.629,247.391 29.151,241.945 29.151,238.046L29.151,222.594C29.151,218.696 31.674,213.25 34.758,210.491L172.192,87.571C175.276,84.813 181.366,82.556 185.724,82.556L199.078,82.556C203.437,82.556 209.526,80.3 212.61,77.541L268.746,27.334C271.83,24.575 277.919,22.319 282.278,22.319L410.057,22.319C414.416,22.319 420.505,20.062 423.589,17.304L443.877,-0.842C446.961,-3.6 449.484,-9.046 449.484,-12.945L449.484,-78.469" style="fill:none;fill-rule:nonzero;stroke:black;stroke-width:1px;"/>
    <path d="M-406.707,616.357L-308.271,616.357C-303.912,616.357 -297.823,614.101 -294.739,611.342L-271.948,590.958C-268.864,588.199 -262.775,585.943 -258.416,585.943L-219.345,585.943C-214.986,585.943 -208.897,583.686 -205.813,580.928L-107.172,492.704C-104.088,489.946 -101.565,484.5 -101.565,480.601L-101.565,381.716C-101.565,377.817 -99.043,372.371 -95.958,369.613L30.579,256.439C33.663,253.68 36.186,248.234 36.186,244.336L36.186,228.883C36.186,224.985 38.708,219.539 41.793,216.78L179.226,93.86C182.311,91.102 188.4,88.845 192.759,88.845L206.112,88.845C210.471,88.845 216.56,86.589 219.644,83.83L275.78,33.623C278.864,30.864 284.954,28.608 289.312,28.608L417.091,28.608C421.45,28.608 427.539,26.351 430.623,23.593L450.911,5.447C453.995,2.689 456.518,-2.757 456.518,-6.656L456.518,-72.18" style="fill:none;fill-rule:nonzero;stroke:black;stroke-width:1px;"/>
    <path d="M-399.675,622.65L-301.239,622.65C-296.88,622.65 -290.791,620.393 -287.707,617.635L-264.916,597.251C-261.832,594.492 -255.743,592.236 -251.384,592.236L-212.313,592.236C-207.955,592.236 -201.866,589.979 -198.781,587.221L-100.141,498.997C-97.056,496.239 -94.534,490.793 -94.534,486.894L-94.534,388.009C-94.534,384.11 -92.011,378.664 -88.927,375.906L37.61,262.732C40.695,259.973 43.217,254.527 43.217,250.629L43.217,235.176C43.217,231.278 45.74,225.832 48.824,223.073L186.258,100.153C189.342,97.395 195.432,95.138 199.79,95.138L213.144,95.138C217.503,95.138 223.592,92.882 226.676,90.123L282.812,39.916C285.896,37.157 291.985,34.901 296.344,34.901L424.123,34.901C428.482,34.901 434.571,32.644 437.655,29.886L457.943,11.74C461.027,8.982 463.55,3.536 463.55,-0.363L463.55,-65.887" style="fill:none;fill-rule:nonzero;stroke:black;stroke-width:1px;"/>
    <path d="M-392.642,628.933L-294.206,628.933C-289.847,628.933 -283.758,626.677 -280.674,623.918L-257.882,603.534C-254.798,600.775 -248.709,598.519 -244.35,598.519L-205.28,598.519C-200.921,598.519 -194.832,596.263 -191.748,593.504L-93.107,505.28C-90.023,502.522 -87.5,497.076 -87.5,493.177L-87.5,394.292C-87.5,390.393 -84.977,384.947 -81.893,382.189L44.644,269.015C47.728,266.256 50.251,260.81 50.251,256.912L50.251,241.46C50.251,237.561 52.774,232.115 55.858,229.357L193.292,106.436C196.376,103.678 202.465,101.421 206.824,101.421L220.178,101.421C224.537,101.421 230.626,99.165 233.71,96.407L289.846,46.199C292.93,43.44 299.019,41.184 303.378,41.184L431.156,41.184C435.515,41.184 441.604,38.928 444.688,36.169L464.977,18.023C468.061,15.265 470.584,9.819 470.584,5.921L470.584,-59.603" style="fill:none;fill-rule:nonzero;stroke:black;stroke-width:1px;"/>
    <path d="M-385.607,635.224L-287.171,635.224C-282.813,635.224 -276.724,632.968 -273.639,630.209L-250.848,609.825C-247.764,607.066 -241.675,604.81 -237.316,604.81L-198.246,604.81C-193.887,604.81 -187.798,602.554 -184.713,599.795L-86.073,511.571C-82.989,508.813 -80.466,503.367 -80.466,499.468L-80.466,400.583C-80.466,396.684 -77.943,391.238 -74.859,388.48L51.678,275.306C54.762,272.547 57.285,267.101 57.285,263.203L57.285,247.751C57.285,243.852 59.808,238.406 62.892,235.648L200.326,112.727C203.41,109.969 209.499,107.712 213.858,107.712L227.212,107.712C231.571,107.712 237.66,105.456 240.744,102.698L296.88,52.49C299.964,49.731 306.053,47.475 310.412,47.475L438.191,47.475C442.549,47.475 448.638,45.219 451.723,42.46L472.011,24.315C475.095,21.556 477.618,16.11 477.618,12.211L477.618,-53.313" style="fill:none;fill-rule:nonzero;stroke:black;stroke-width:1px;"/>
    <path d="M-378.575,641.515L-280.139,641.515C-275.78,641.515 -269.691,639.259 -266.607,636.5L-243.816,616.116C-240.732,613.357 -234.643,611.101 -230.284,611.101L-191.213,611.101C-186.854,611.101 -180.765,608.845 -177.681,606.086L-79.041,517.862C-75.956,515.104 -73.434,509.658 -73.434,505.759L-73.434,406.874C-73.434,402.975 -70.911,397.529 -67.827,394.771L58.71,281.597C61.795,278.838 64.317,273.392 64.317,269.494L64.317,254.042C64.317,250.143 66.84,244.697 69.924,241.939L207.358,119.018C210.443,116.26 216.532,114.003 220.89,114.003L234.244,114.003C238.603,114.003 244.692,111.747 247.776,108.989L303.912,58.781C306.996,56.022 313.085,53.766 317.444,53.766L445.223,53.766C449.582,53.766 455.671,51.51 458.755,48.751L479.043,30.606C482.127,27.847 484.65,22.401 484.65,18.503L484.65,-47.022" style="fill:none;fill-rule:nonzero;stroke:black;stroke-width:1px;"/>
    <path d="M-371.548,647.806L-273.112,647.806C-268.753,647.806 -262.664,645.55 -259.58,642.791L-236.789,622.407C-233.704,619.648 -227.615,617.392 -223.257,617.392L-184.186,617.392C-179.827,617.392 -173.738,615.136 -170.654,612.377L-72.013,524.153C-68.929,521.395 -66.406,515.949 -66.406,512.05L-66.406,413.165C-66.406,409.266 -63.883,403.82 -60.799,401.062L65.738,287.888C68.822,285.129 71.345,279.683 71.345,275.785L71.345,260.333C71.345,256.434 73.868,250.988 76.952,248.23L214.386,125.309C217.47,122.551 223.559,120.294 227.918,120.294L241.271,120.294C245.63,120.294 251.719,118.038 254.804,115.28L310.94,65.072C314.024,62.314 320.113,60.057 324.472,60.057L452.25,60.057C456.609,60.057 462.698,57.801 465.782,55.042L486.07,36.897C489.155,34.138 491.677,28.692 491.677,24.794L491.677,-40.731" style="fill:none;fill-rule:nonzero;stroke:black;stroke-width:1px;"/>
    <path d="M-364.514,654.095L-266.078,654.095C-261.719,654.095 -255.63,651.839 -252.546,649.08L-229.754,628.696C-226.67,625.938 -220.581,623.681 -216.222,623.681L-177.152,623.681C-172.793,623.681 -166.704,621.425 -163.62,618.666L-64.979,530.442C-61.895,527.684 -59.372,522.238 -59.372,518.339L-59.372,419.454C-59.372,415.555 -56.849,410.109 -53.765,407.351L72.772,294.177C75.856,291.418 78.379,285.972 78.379,282.074L78.379,266.622C78.379,262.723 80.902,257.277 83.986,254.519L221.42,131.598C224.504,128.84 230.593,126.584 234.952,126.584L248.306,126.584C252.664,126.584 258.754,124.327 261.838,121.569L317.974,71.361C321.058,68.603 327.147,66.346 331.506,66.346L459.284,66.346C463.643,66.346 469.732,64.09 472.816,61.331L493.105,43.186C496.189,40.427 498.712,34.981 498.712,31.083L498.712,-34.441" style="fill:none;fill-rule:nonzero;stroke:black;stroke-width:1px;"/>
    <path d="M-356.218,661.515L-257.782,661.515C-253.423,661.515 -247.334,659.259 -244.25,656.5L-221.459,636.116C-218.375,633.358 -212.286,631.101 -207.927,631.101L-168.856,631.101C-164.498,631.101 -158.408,628.845 -155.324,626.086L-56.684,537.863C-53.599,535.104 -51.077,529.658 -51.077,525.76L-51.077,426.874C-51.077,422.976 -48.554,417.53 -45.47,414.771L81.067,301.597C84.152,298.839 89.164,294.302 92.215,291.52L258.979,139.078C262.03,136.29 268.086,134.027 272.445,134.051L337.153,134.364C341.512,134.388 345.078,131.21 345.078,127.311L345.078,98.587C345.078,94.688 348.644,91.499 353.003,91.499L480.782,91.499C485.14,91.499 491.229,89.242 494.314,86.484L514.602,68.338C517.686,65.58 520.209,60.133 520.209,56.235L520.209,-9.289" style="fill:none;fill-rule:nonzero;stroke:black;stroke-width:1px;"/>
    <path d="M-348.939,668.023L-250.503,668.023C-246.145,668.023 -240.056,665.767 -236.971,663.008L-214.18,642.624C-211.096,639.866 -205.007,637.609 -200.648,637.609L-161.578,637.609C-157.219,637.609 -151.13,635.353 -148.045,632.594L-49.405,544.371C-46.321,541.612 -43.798,536.166 -43.798,532.268L-43.798,433.382C-43.798,429.483 -41.275,424.037 -38.191,421.279L88.346,308.105C91.43,305.346 96.443,300.81 99.494,298.028L266.257,145.585C269.309,142.797 275.365,140.535 279.723,140.559L344.432,140.872C348.79,140.895 352.357,137.718 352.357,133.819L352.357,105.094C352.357,101.196 355.923,98.006 360.282,98.006L488.06,98.006C492.419,98.006 498.508,95.75 501.592,92.991L521.881,74.846C524.965,72.087 527.488,66.641 527.488,62.743L527.488,-2.781" style="fill:none;fill-rule:nonzero;stroke:black;stroke-width:1px;"/>
    <path d="M-341.663,674.535L-243.227,674.535C-238.868,674.535 -232.779,672.279 -229.695,669.52L-206.903,649.136C-203.819,646.377 -197.73,644.121 -193.371,644.121L-154.301,644.121C-149.942,644.121 -143.853,641.865 -140.769,639.106L-42.128,550.882C-39.044,548.124 -36.521,542.678 -36.521,538.779L-36.521,439.894C-36.521,435.995 -33.998,430.549 -30.914,427.791L95.623,314.617C98.707,311.858 103.72,307.322 106.771,304.54L273.534,152.097C276.585,149.309 282.642,147.047 287,147.071L351.709,147.384C356.067,147.407 359.634,144.229 359.634,140.331L359.634,111.606C359.634,107.708 363.2,104.518 367.559,104.518L495.337,104.518C499.696,104.518 505.785,102.262 508.869,99.503L529.157,81.358C532.242,78.599 534.764,73.153 534.764,69.254L534.764,3.73" style="fill:none;fill-rule:nonzero;stroke:black;stroke-width:1px;"/>
    <path d="M-334.386,681.043L-235.95,681.043C-231.591,681.043 -225.502,678.786 -222.418,676.028L-199.626,655.644C-196.542,652.885 -190.453,650.629 -186.094,650.629L-147.024,650.629C-142.665,650.629 -136.576,648.372 -133.492,645.614L-34.851,557.39C-31.767,554.632 -29.244,549.185 -29.244,545.287L-29.244,446.401C-29.244,442.503 -26.721,437.057 -23.637,434.298L102.9,321.124C105.984,318.366 110.997,313.83 114.048,311.047L280.811,158.605C283.862,155.817 289.918,153.555 294.277,153.578L358.985,153.891C363.344,153.915 366.91,150.737 366.91,146.839L366.91,118.114C366.91,114.215 370.477,111.026 374.836,111.026L502.614,111.026C506.973,111.026 513.062,108.769 516.146,106.011L536.434,87.865C539.518,85.107 542.041,79.661 542.041,75.762L542.041,10.238" style="fill:none;fill-rule:nonzero;stroke:black;stroke-width:1px;"/>
    <path d="M-327.109,687.553L-228.673,687.553C-224.315,687.553 -218.226,685.296 -215.141,682.538L-192.35,662.153C-189.266,659.395 -183.177,657.138 -178.818,657.138L-139.747,657.138C-135.389,657.138 -129.3,654.882 -126.215,652.124L-27.575,563.9C-24.491,561.141 -21.968,555.695 -21.968,551.797L-21.968,452.911C-21.968,449.013 -19.445,443.567 -16.361,440.808L110.176,327.634C113.26,324.876 118.273,320.339 121.324,317.557L288.087,165.115C291.139,162.327 297.195,160.064 301.554,160.088L366.262,160.401C370.62,160.425 374.187,157.247 374.187,153.348L374.187,124.624C374.187,120.725 377.753,117.536 382.112,117.536L509.891,117.536C514.249,117.536 520.338,115.279 523.423,112.521L543.711,94.375C546.795,91.617 549.318,86.171 549.318,82.272L549.318,16.748" style="fill:none;fill-rule:nonzero;stroke:black;stroke-width:1px;"/>
    <path d="M-319.824,694.062L-221.388,694.062C-217.029,694.062 -210.94,691.806 -207.856,689.047L-185.064,668.663C-181.98,665.904 -175.891,663.648 -171.532,663.648L-132.462,663.648C-128.103,663.648 -122.014,661.392 -118.93,658.633L-20.289,570.41C-17.205,567.651 -14.682,562.205 -14.682,558.306L-14.682,459.421C-14.682,455.522 -12.159,450.076 -9.075,447.318L117.462,334.144C120.546,331.385 125.559,326.849 128.61,324.067L295.373,171.625C298.424,168.837 304.48,166.574 308.839,166.598L373.547,166.911C377.906,166.935 381.472,163.757 381.472,159.858L381.472,131.133C381.472,127.235 385.039,124.045 389.398,124.045L517.176,124.045C521.535,124.045 527.624,121.789 530.708,119.03L550.996,100.885C554.081,98.126 556.603,92.68 556.603,88.782L556.603,23.258" style="fill:none;fill-rule:nonzero;stroke:black;stroke-width:1px;"/>
    <path d="M-312.545,700.57L-214.109,700.57C-209.75,700.57 -203.661,698.314 -200.577,695.555L-177.786,675.171C-174.702,672.412 -168.612,670.156 -164.254,670.156L-125.183,670.156C-120.824,670.156 -114.735,667.9 -111.651,665.141L-13.01,576.917C-9.926,574.159 -7.403,568.713 -7.403,564.814L-7.403,465.929C-7.403,462.03 -4.88,456.584 -1.796,453.826L124.741,340.652C127.825,337.893 132.837,333.357 135.889,330.575L302.652,178.132C305.703,175.344 311.759,173.082 316.118,173.106L380.826,173.419C385.185,173.442 388.751,170.264 388.751,166.366L388.751,137.641C388.751,133.743 392.318,130.553 396.676,130.553L524.455,130.553C528.814,130.553 534.903,128.297 537.987,125.538L558.275,107.393C561.359,104.634 563.882,99.188 563.882,95.29L563.882,29.766" style="fill:none;fill-rule:nonzero;stroke:black;stroke-width:1px;"/>
    <path d="M-305.266,707.08L-206.83,707.08C-202.471,707.08 -196.382,704.823 -193.298,702.065L-170.506,681.681C-167.422,678.922 -161.333,676.666 -156.974,676.666L-117.904,676.666C-113.545,676.666 -107.456,674.409 -104.372,671.651L-5.731,583.427C-2.647,580.669 -0.124,575.223 -0.124,571.324L-0.124,472.439C-0.124,468.54 2.399,463.094 5.483,460.336L132.02,347.161C135.104,344.403 140.117,339.867 143.168,337.085L309.931,184.642C312.982,181.854 319.039,179.592 323.397,179.615L388.105,179.928C392.464,179.952 396.031,176.774 396.031,172.876L396.031,144.151C396.031,140.253 399.597,137.063 403.956,137.063L531.734,137.063C536.093,137.063 542.182,134.807 545.266,132.048L565.554,113.902C568.639,111.144 571.161,105.698 571.161,101.799L571.161,36.275" style="fill:none;fill-rule:nonzero;stroke:black;stroke-width:1px;"/>
    <path d="M-297.989,713.59L-199.553,713.59C-195.194,713.59 -189.105,711.333 -186.021,708.575L-163.23,688.19C-160.146,685.432 -154.057,683.176 -149.698,683.176L-110.627,683.176C-106.269,683.176 -100.179,680.919 -97.095,678.161L1.545,589.937C4.63,587.178 7.152,581.732 7.152,577.834L7.152,478.948C7.152,475.05 9.675,469.604 12.759,466.845L139.296,353.671C142.381,350.913 147.393,346.376 150.444,343.594L317.208,191.152C320.259,188.364 326.315,186.102 330.674,186.125L395.382,186.438C399.741,186.462 403.307,183.284 403.307,179.386L403.307,150.661C403.307,146.762 406.873,143.573 411.232,143.573L539.011,143.573C543.369,143.573 549.458,141.316 552.543,138.558L572.831,120.412C575.915,117.654 578.438,112.208 578.438,108.309L578.438,42.785" style="fill:none;fill-rule:nonzero;stroke:black;stroke-width:1px;"/>
    <path d="M-290.712,720.105L-192.276,720.105C-187.918,720.105 -181.829,717.849 -178.744,715.09L-155.953,694.706C-152.869,691.948 -146.78,689.691 -142.421,689.691L-103.351,689.691C-98.992,689.691 -92.903,687.435 -89.819,684.676L8.822,596.452C11.906,593.694 14.429,588.248 14.429,584.349L14.429,485.464C14.429,481.566 16.952,476.119 20.036,473.361L146.573,360.187C149.657,357.428 154.67,352.892 157.721,350.11L324.484,197.667C327.536,194.879 333.592,192.617 337.95,192.641L402.659,192.954C407.018,192.978 410.584,189.8 410.584,185.901L410.584,157.176C410.584,153.278 414.15,150.088 418.509,150.088L546.287,150.088C550.646,150.088 556.735,147.832 559.819,145.073L580.108,126.928C583.192,124.169 585.715,118.723 585.715,114.825L585.715,49.301" style="fill:none;fill-rule:nonzero;stroke:black;stroke-width:1px;"/>
    <path d="M-283.434,726.613L-184.998,726.613C-180.639,726.613 -174.55,724.357 -171.466,721.598L-148.674,701.214C-145.59,698.455 -139.501,696.199 -135.142,696.199L-96.072,696.199C-91.713,696.199 -85.624,693.942 -82.54,691.184L16.101,602.96C19.185,600.202 21.708,594.756 21.708,590.857L21.708,491.972C21.708,488.073 24.231,482.627 27.315,479.869L153.852,366.695C156.936,363.936 161.949,359.4 165,356.618L331.763,204.175C334.814,201.387 340.87,199.125 345.229,199.149L409.937,199.462C414.296,199.485 417.863,196.307 417.863,192.409L417.863,163.684C417.863,159.786 421.429,156.596 425.788,156.596L553.566,156.596C557.925,156.596 564.014,154.34 567.098,151.581L587.387,133.436C590.471,130.677 592.994,125.231 592.994,121.333L592.994,55.809" style="fill:none;fill-rule:nonzero;stroke:black;stroke-width:1px;"/>
    <path d="M-276.154,733.123L-177.718,733.123C-173.36,733.123 -167.27,730.866 -164.186,728.108L-141.395,707.724C-138.311,704.965 -132.222,702.709 -127.863,702.709L-88.792,702.709C-84.434,702.709 -78.345,700.452 -75.26,697.694L23.38,609.47C26.465,606.712 28.987,601.266 28.987,597.367L28.987,498.481C28.987,494.583 31.51,489.137 34.594,486.378L161.131,373.204C164.216,370.446 169.228,365.91 172.279,363.127L339.043,210.685C342.094,207.897 348.15,205.635 352.509,205.658L417.217,205.971C421.576,205.995 425.142,202.817 425.142,198.919L425.142,170.194C425.142,166.296 428.708,163.106 433.067,163.106L560.846,163.106C565.204,163.106 571.293,160.85 574.378,158.091L594.666,139.945C597.75,137.187 600.273,131.741 600.273,127.842L600.273,62.318" style="fill:none;fill-rule:nonzero;stroke:black;stroke-width:1px;"/>
    <path d="M-268.878,739.632L-170.442,739.632C-166.083,739.632 -159.994,737.376 -156.91,734.618L-134.119,714.233C-131.035,711.475 -124.945,709.218 -120.587,709.218L-81.516,709.218C-77.157,709.218 -71.068,706.962 -67.984,704.204L30.657,615.98C33.741,613.221 36.264,607.775 36.264,603.877L36.264,504.991C36.264,501.093 38.787,495.647 41.871,492.888L168.408,379.714C171.492,376.956 176.504,372.419 179.556,369.637L346.319,217.195C349.37,214.407 355.426,212.145 359.785,212.168L424.493,212.481C428.852,212.505 432.418,209.327 432.418,205.429L432.418,176.704C432.418,172.805 435.985,169.616 440.343,169.616L568.122,169.616C572.481,169.616 578.57,167.359 581.654,164.601L601.942,146.455C605.026,143.697 607.549,138.251 607.549,134.352L607.549,68.828" style="fill:none;fill-rule:nonzero;stroke:black;stroke-width:1px;"/>
    <path d="M-261.601,746.14L-163.165,746.14C-158.806,746.14 -152.717,743.884 -149.633,741.126L-126.842,720.741C-123.758,717.983 -117.669,715.726 -113.31,715.726L-74.239,715.726C-69.88,715.726 -63.791,713.47 -60.707,710.712L37.934,622.488C41.018,619.729 43.541,614.283 43.541,610.385L43.541,511.499C43.541,507.601 46.063,502.155 49.148,499.396L175.685,386.222C178.769,383.464 183.781,378.927 186.832,376.145L353.596,223.703C356.647,220.915 362.703,218.652 367.062,218.676L431.77,218.989C436.129,219.013 439.695,215.835 439.695,211.936L439.695,183.212C439.695,179.313 443.261,176.123 447.62,176.123L575.399,176.123C579.758,176.123 585.847,173.867 588.931,171.109L609.219,152.963C612.303,150.205 614.826,144.758 614.826,140.86L614.826,75.336" style="fill:none;fill-rule:nonzero;stroke:black;stroke-width:1px;"/>
    <path d="M-254.322,752.652L-155.886,752.652C-151.527,752.652 -145.438,750.396 -142.354,747.637L-119.563,727.253C-116.479,724.494 -110.39,722.238 -106.031,722.238L-66.96,722.238C-62.602,722.238 -56.513,719.982 -53.428,717.223L45.212,628.999C48.297,626.241 50.819,620.795 50.819,616.896L50.819,518.011C50.819,514.112 53.342,508.666 56.426,505.908L182.963,392.734C186.048,389.975 191.06,385.439 194.111,382.657L360.875,230.214C363.926,227.426 369.982,225.164 374.341,225.188L439.049,225.501C443.408,225.524 446.974,222.347 446.974,218.448L446.974,189.723C446.974,185.825 450.54,182.635 454.899,182.635L582.678,182.635C587.036,182.635 593.125,180.379 596.21,177.62L616.498,159.475C619.582,156.716 622.105,151.27 622.105,147.372L622.105,81.848" style="fill:none;fill-rule:nonzero;stroke:black;stroke-width:1px;"/>
    <path d="M-247.039,759.16L-148.603,759.16C-144.244,759.16 -138.155,756.904 -135.071,754.145L-112.28,733.761C-109.196,731.002 -103.107,728.746 -98.748,728.746L-59.677,728.746C-55.318,728.746 -49.229,726.49 -46.145,723.731L52.496,635.507C55.58,632.749 58.103,627.303 58.103,623.404L58.103,524.519C58.103,520.62 60.625,515.174 63.71,512.416L190.247,399.242C193.331,396.483 198.343,391.947 201.395,389.165L368.158,236.722C371.209,233.934 377.265,231.672 381.624,231.696L446.332,232.009C450.691,232.032 454.257,228.854 454.257,224.956L454.257,196.231C454.257,192.333 457.823,189.143 462.182,189.143L589.961,189.143C594.32,189.143 600.409,186.887 603.493,184.128L623.781,165.982C626.865,163.224 629.388,157.778 629.388,153.879L629.388,88.356" style="fill:none;fill-rule:nonzero;stroke:black;stroke-width:1px;"/>
    <path d="M-477.848,552.73L-379.412,552.73C-375.053,552.73 -368.964,550.474 -365.88,547.715L-343.088,527.331C-340.004,524.572 -333.915,522.316 -329.556,522.316L-290.486,522.316C-286.127,522.316 -280.038,520.06 -276.954,517.301L-178.313,429.077C-175.229,426.319 -172.706,420.873 -172.706,416.974L-172.706,318.089C-172.706,314.19 -170.183,308.744 -167.099,305.986L-40.562,192.812C-37.478,190.053 -34.955,184.607 -34.955,180.709L-34.955,78.509C-34.955,74.611 -32.432,69.165 -29.348,66.406L-12.111,50.99C-9.027,48.231 -2.938,45.975 1.421,45.975L53.878,45.975C58.237,45.975 64.121,48.048 66.955,50.582C69.788,53.116 74.629,52.933 77.706,50.175L100.009,30.227C103.093,27.469 109.182,25.212 113.541,25.212L134.978,25.212C139.337,25.212 145.426,22.956 148.51,20.198L204.646,-30.01C207.73,-32.769 213.819,-35.025 218.178,-35.025L345.957,-35.025C350.316,-35.025 356.405,-37.281 359.489,-40.04L379.777,-58.185C382.861,-60.944 385.384,-66.39 385.384,-70.289L385.384,-135.813" style="fill:none;fill-rule:nonzero;stroke:black;stroke-width:1px;"/>
    <path d="M-484.539,546.746L-386.103,546.746C-381.744,546.746 -375.655,544.489 -372.571,541.731L-349.779,521.346C-346.695,518.588 -340.606,516.332 -336.247,516.332L-297.177,516.332C-292.818,516.332 -286.729,514.075 -283.645,511.317L-185.004,423.093C-181.92,420.334 -179.397,414.888 -179.397,410.99L-179.397,312.104C-179.397,308.206 -176.874,302.76 -173.79,300.001L-47.253,186.827C-44.169,184.069 -41.646,178.623 -41.646,174.724L-41.646,72.525C-41.646,68.627 -39.123,63.181 -36.039,60.422L-18.802,45.005C-15.718,42.247 -9.629,39.99 -5.27,39.99L47.187,39.99C51.546,39.99 57.431,42.064 60.264,44.598C63.097,47.132 67.938,46.949 71.016,44.19L93.318,24.243C96.402,21.485 102.491,19.228 106.85,19.228L128.287,19.228C132.646,19.228 138.735,16.972 141.819,14.213L197.955,-35.995C201.039,-38.753 207.129,-41.009 211.487,-41.009L339.266,-41.009C343.625,-41.009 349.714,-43.266 352.798,-46.024L373.086,-64.17C376.17,-66.928 378.693,-72.374 378.693,-76.273L378.693,-141.797" style="fill:none;fill-rule:nonzero;stroke:black;stroke-width:1px;"/>
    <path d="M-491.236,540.757L-392.8,540.757C-388.441,540.757 -382.352,538.501 -379.268,535.742L-356.477,515.358C-353.392,512.6 -347.303,510.343 -342.945,510.343L-303.874,510.343C-299.515,510.343 -293.426,508.087 -290.342,505.328L-191.701,417.105C-188.617,414.346 -186.094,408.9 -186.094,405.002L-186.094,306.116C-186.094,302.218 -183.571,296.772 -180.487,294.013L-53.95,180.839C-50.866,178.081 -48.343,172.634 -48.343,168.736L-48.343,66.537C-48.343,62.638 -45.82,57.192 -42.736,54.434L-25.499,39.017C-22.415,36.259 -16.326,34.002 -11.967,34.002L40.49,34.002C44.849,34.002 50.733,36.075 53.567,38.609C56.4,41.144 61.241,40.96 64.318,38.202L86.621,18.255C89.705,15.496 95.794,13.24 100.153,13.24L121.59,13.24C125.949,13.24 132.038,10.983 135.122,8.225L191.258,-41.983C194.342,-44.741 200.431,-46.998 204.79,-46.998L332.569,-46.998C336.928,-46.998 343.017,-49.254 346.101,-52.013L366.389,-70.158C369.473,-72.917 371.996,-78.363 371.996,-82.261L371.996,-147.785" style="fill:none;fill-rule:nonzero;stroke:black;stroke-width:1px;"/>
    <path d="M-497.926,534.773L-399.49,534.773C-395.131,534.773 -389.042,532.517 -385.958,529.758L-363.167,509.374C-360.082,506.615 -353.993,504.359 -349.634,504.359L-310.564,504.359C-306.205,504.359 -300.116,502.103 -297.032,499.344L-198.391,411.12C-195.307,408.362 -192.784,402.916 -192.784,399.017L-192.784,300.132C-192.784,296.233 -190.261,290.787 -187.177,288.029L-60.64,174.855C-57.556,172.096 -55.033,166.65 -55.033,162.752L-55.033,60.552C-55.033,56.654 -52.51,51.208 -49.426,48.449L-32.189,33.033C-29.105,30.274 -23.016,28.018 -18.657,28.018L33.8,28.018C38.159,28.018 44.044,30.091 46.877,32.625C49.71,35.159 54.551,34.976 57.628,32.218L79.931,12.27C83.015,9.512 89.104,7.255 93.463,7.255L114.9,7.255C119.259,7.255 125.348,4.999 128.432,2.241L184.568,-47.967C187.652,-50.726 193.741,-52.982 198.1,-52.982L325.879,-52.982C330.238,-52.982 336.327,-55.238 339.411,-57.997L359.699,-76.143C362.783,-78.901 365.306,-84.347 365.306,-88.246L365.306,-153.77" style="fill:none;fill-rule:nonzero;stroke:black;stroke-width:1px;"/>
    <path d="M-504.623,528.785L-406.187,528.785C-401.828,528.785 -395.739,526.528 -392.655,523.77L-369.864,503.386C-366.78,500.627 -360.691,498.371 -356.332,498.371L-317.261,498.371C-312.902,498.371 -306.813,496.114 -303.729,493.356L-205.088,405.132C-202.004,402.374 -199.481,396.927 -199.481,393.029L-199.481,294.143C-199.481,290.245 -196.959,284.799 -193.874,282.04L-67.337,168.866C-64.253,166.108 -61.73,160.662 -61.73,156.763L-61.73,54.564C-61.73,50.666 -59.208,45.219 -56.123,42.461L-38.886,27.044C-35.802,24.286 -29.713,22.03 -25.354,22.03L27.103,22.03C31.462,22.03 37.346,24.103 40.179,26.637C43.013,29.171 47.853,28.988 50.931,26.229L73.234,6.282C76.318,3.524 82.407,1.267 86.766,1.267L108.203,1.267C112.562,1.267 118.651,-0.989 121.735,-3.748L177.871,-53.955C180.955,-56.714 187.044,-58.97 191.403,-58.97L319.182,-58.97C323.54,-58.97 329.629,-61.227 332.714,-63.985L353.002,-82.131C356.086,-84.889 358.609,-90.335 358.609,-94.234L358.609,-159.758" style="fill:none;fill-rule:nonzero;stroke:black;stroke-width:1px;"/>
    <path d="M-511.312,522.8L-412.877,522.8C-408.518,522.8 -402.429,520.544 -399.344,517.785L-376.553,497.401C-373.469,494.643 -367.38,492.386 -363.021,492.386L-323.951,492.386C-319.592,492.386 -313.503,490.13 -310.419,487.371L-211.778,399.148C-208.694,396.389 -206.171,390.943 -206.171,387.045L-206.171,288.159C-206.171,284.261 -203.648,278.815 -200.564,276.056L-74.027,162.882C-70.943,160.123 -68.42,154.677 -68.42,150.779L-68.42,48.58C-68.42,44.681 -65.897,39.235 -62.813,36.477L-45.576,21.06C-42.492,18.302 -36.403,16.045 -32.044,16.045L20.414,16.045C24.772,16.045 30.657,18.118 33.49,20.652C36.323,23.186 41.164,23.003 44.242,20.245L66.544,0.298C69.628,-2.461 75.717,-4.717 80.076,-4.717L101.513,-4.717C105.872,-4.717 111.961,-6.974 115.046,-9.732L171.181,-59.94C174.266,-62.698 180.355,-64.955 184.714,-64.955L312.492,-64.955C316.851,-64.955 322.94,-67.211 326.024,-69.97L346.312,-88.115C349.396,-90.874 351.919,-96.32 351.919,-100.218L351.919,-165.742" style="fill:none;fill-rule:nonzero;stroke:black;stroke-width:1px;"/>
    <path d="M-518.01,516.812L-419.574,516.812C-415.215,516.812 -409.126,514.556 -406.042,511.797L-383.251,491.413C-380.166,488.654 -374.077,486.398 -369.718,486.398L-330.648,486.398C-326.289,486.398 -320.2,484.142 -317.116,481.383L-218.475,393.159C-215.391,390.401 -212.868,384.955 -212.868,381.056L-212.868,282.171C-212.868,278.272 -210.345,272.826 -207.261,270.068L-80.724,156.894C-77.64,154.135 -75.117,148.689 -75.117,144.791L-75.117,42.592C-75.117,38.693 -72.594,33.247 -69.51,30.488L-52.273,15.072C-49.189,12.313 -43.1,10.057 -38.741,10.057L13.716,10.057C18.075,10.057 23.959,12.13 26.793,14.664C29.626,17.198 34.467,17.015 37.544,14.257L59.847,-5.691C62.931,-8.449 69.02,-10.706 73.379,-10.706L94.816,-10.706C99.175,-10.706 105.264,-12.962 108.348,-15.72L164.484,-65.928C167.568,-68.687 173.657,-70.943 178.016,-70.943L305.795,-70.943C310.154,-70.943 316.243,-73.199 319.327,-75.958L339.615,-94.104C342.699,-96.862 345.222,-102.308 345.222,-106.206L345.222,-171.73" style="fill:none;fill-rule:nonzero;stroke:black;stroke-width:1px;"/>
    <path d="M-524.699,510.828L-426.263,510.828C-421.904,510.828 -415.815,508.571 -412.731,505.813L-389.94,485.428C-386.856,482.67 -380.767,480.414 -376.408,480.414L-337.337,480.414C-332.979,480.414 -326.889,478.157 -323.805,475.399L-225.165,387.175C-222.08,384.417 -219.558,378.97 -219.558,375.072L-219.558,276.186C-219.558,272.288 -217.035,266.842 -213.951,264.083L-87.414,150.909C-84.329,148.151 -81.807,142.705 -81.807,138.806L-81.807,36.607C-81.807,32.709 -79.284,27.263 -76.2,24.504L-58.963,9.087C-55.878,6.329 -49.789,4.072 -45.431,4.072L7.027,4.072C11.386,4.072 17.27,6.146 20.103,8.68C22.936,11.214 27.777,11.031 30.855,8.272L53.157,-11.675C56.242,-14.434 62.331,-16.69 66.689,-16.69L88.127,-16.69C92.486,-16.69 98.575,-18.946 101.659,-21.705L157.795,-71.912C160.879,-74.671 166.968,-76.927 171.327,-76.927L299.105,-76.927C303.464,-76.927 309.553,-79.184 312.637,-81.942L332.926,-100.088C336.01,-102.846 338.533,-108.292 338.533,-112.191L338.533,-177.715" style="fill:none;fill-rule:nonzero;stroke:black;stroke-width:1px;"/>
    <path d="M-531.396,504.837L-432.96,504.837C-428.601,504.837 -422.512,502.581 -419.427,499.823L-396.636,479.438C-393.552,476.68 -387.463,474.423 -383.104,474.423L-344.034,474.423C-339.675,474.423 -333.586,472.167 -330.502,469.409L-231.861,381.185C-228.777,378.426 -226.254,372.98 -226.254,369.082L-226.254,270.196C-226.254,266.298 -223.731,260.852 -220.647,258.093L-94.11,144.919C-91.026,142.161 -88.503,136.715 -88.503,132.816L-88.503,30.617C-88.503,26.718 -85.98,21.272 -82.896,18.514L-65.659,3.097C-62.575,0.339 -56.486,-1.918 -52.127,-1.918L0.331,-1.918C4.689,-1.918 10.574,0.156 13.407,2.69C16.24,5.224 21.081,5.04 24.159,2.282L46.461,-17.665C49.545,-20.424 55.634,-22.68 59.993,-22.68L81.431,-22.68C85.789,-22.68 91.878,-24.937 94.963,-27.695L151.098,-77.903C154.183,-80.661 160.272,-82.918 164.631,-82.918L292.409,-82.918C296.768,-82.918 302.857,-85.174 305.941,-87.932L326.229,-106.078C329.313,-108.837 331.836,-114.283 331.836,-118.181L331.836,-183.705" style="fill:none;fill-rule:nonzero;stroke:black;stroke-width:1px;"/>
    <path d="M-538.086,498.855L-439.65,498.855C-435.292,498.855 -429.203,496.599 -426.118,493.84L-403.327,473.456C-400.243,470.697 -394.154,468.441 -389.795,468.441L-350.725,468.441C-346.366,468.441 -340.277,466.185 -337.192,463.426L-238.552,375.202C-235.468,372.444 -232.945,366.998 -232.945,363.099L-232.945,264.214C-232.945,260.315 -230.422,254.869 -227.338,252.111L-100.801,138.937C-97.717,136.178 -95.194,130.732 -95.194,126.834L-95.194,24.634C-95.194,20.736 -92.671,15.29 -89.587,12.531L-72.35,-2.885C-69.266,-5.644 -63.176,-7.9 -58.818,-7.9L-6.36,-7.9C-2.002,-7.9 3.883,-5.827 6.716,-3.293C9.549,-0.759 14.39,-0.942 17.468,-3.7L39.77,-23.648C42.854,-26.406 48.944,-28.663 53.302,-28.663L74.74,-28.663C79.098,-28.663 85.188,-30.919 88.272,-33.677L144.408,-83.885C147.492,-86.644 153.581,-88.9 157.94,-88.9L285.718,-88.9C290.077,-88.9 296.166,-91.156 299.25,-93.915L319.538,-112.06C322.623,-114.819 325.145,-120.265 325.145,-124.163L325.145,-189.688" style="fill:none;fill-rule:nonzero;stroke:black;stroke-width:1px;"/>
    <path d="M-544.782,492.865L-446.346,492.865C-441.987,492.865 -435.898,490.608 -432.814,487.85L-410.023,467.466C-406.939,464.707 -400.85,462.451 -396.491,462.451L-357.42,462.451C-353.062,462.451 -346.972,460.194 -343.888,457.436L-245.248,369.212C-242.163,366.454 -239.641,361.008 -239.641,357.109L-239.641,258.224C-239.641,254.325 -237.118,248.879 -234.034,246.12L-107.497,132.946C-104.412,130.188 -101.89,124.742 -101.89,120.843L-101.89,18.644C-101.89,14.746 -99.367,9.3 -96.283,6.541L-79.046,-8.876C-75.962,-11.634 -69.872,-13.89 -65.514,-13.89L-13.056,-13.89C-8.697,-13.89 -2.813,-11.817 0.02,-9.283C2.853,-6.749 7.694,-6.932 10.772,-9.691L33.074,-29.638C36.158,-32.396 42.248,-34.653 46.606,-34.653L68.044,-34.653C72.403,-34.653 78.492,-36.909 81.576,-39.668L137.712,-89.875C140.796,-92.634 146.885,-94.89 151.244,-94.89L279.022,-94.89C283.381,-94.89 289.47,-97.147 292.554,-99.905L312.843,-118.051C315.927,-120.809 318.45,-126.255 318.45,-130.154L318.45,-195.678" style="fill:none;fill-rule:nonzero;stroke:black;stroke-width:1px;"/>
    <path d="M-551.473,486.88L-453.037,486.88C-448.678,486.88 -442.589,484.624 -439.505,481.866L-416.714,461.481C-413.63,458.723 -407.541,456.466 -403.182,456.466L-364.111,456.466C-359.752,456.466 -353.663,454.21 -350.579,451.451L-251.938,363.228C-248.854,360.469 -246.332,355.023 -246.332,351.125L-246.332,252.239C-246.332,248.341 -243.809,242.895 -240.725,240.136L-114.188,126.962C-111.103,124.204 -108.581,118.758 -108.581,114.859L-108.581,12.66C-108.581,8.761 -106.058,3.315 -102.974,0.557L-85.737,-14.86C-82.652,-17.618 -76.563,-19.875 -72.205,-19.875L-19.747,-19.875C-15.388,-19.875 -9.504,-17.802 -6.671,-15.268C-3.838,-12.734 1.003,-12.917 4.081,-15.675L26.383,-35.622C29.468,-38.381 35.557,-40.637 39.915,-40.637L61.353,-40.637C65.712,-40.637 71.801,-42.894 74.885,-45.652L131.021,-95.86C134.105,-98.618 140.194,-100.875 144.553,-100.875L272.331,-100.875C276.69,-100.875 282.779,-103.131 285.863,-105.889L306.152,-124.035C309.236,-126.794 311.759,-132.24 311.759,-136.138L311.759,-201.662" style="fill:none;fill-rule:nonzero;stroke:black;stroke-width:1px;"/>
    <path d="M-558.169,480.89L-459.733,480.89C-455.375,480.89 -449.286,478.634 -446.201,475.875L-423.41,455.491C-420.326,452.733 -414.237,450.476 -409.878,450.476L-370.808,450.476C-366.449,450.476 -360.36,448.22 -357.275,445.461L-258.635,357.237C-255.551,354.479 -253.028,349.033 -253.028,345.134L-253.028,246.249C-253.028,242.35 -250.505,236.904 -247.421,234.146L-120.884,120.972C-117.8,118.213 -115.277,112.767 -115.277,108.869L-115.277,6.67C-115.277,2.771 -112.754,-2.675 -109.67,-5.433L-92.433,-20.85C-89.349,-23.609 -83.26,-25.865 -78.901,-25.865L-26.443,-25.865C-22.085,-25.865 -16.2,-23.792 -13.367,-21.258C-10.534,-18.724 -5.693,-18.907 -2.615,-21.665L19.687,-41.612C22.771,-44.371 28.86,-46.627 33.219,-46.627L54.657,-46.627C59.015,-46.627 65.104,-48.884 68.189,-51.642L124.324,-101.85C127.409,-104.608 133.498,-106.865 137.856,-106.865L265.635,-106.865C269.994,-106.865 276.083,-109.121 279.167,-111.88L299.455,-130.025C302.54,-132.784 305.062,-138.23 305.062,-142.128L305.062,-207.652" style="fill:none;fill-rule:nonzero;stroke:black;stroke-width:1px;"/>
    <path d="M-564.86,474.907L-466.424,474.907C-462.066,474.907 -455.976,472.651 -452.892,469.892L-430.101,449.508C-427.017,446.75 -420.928,444.493 -416.569,444.493L-377.498,444.493C-373.14,444.493 -367.051,442.237 -363.966,439.478L-265.326,351.255C-262.242,348.496 -259.719,343.05 -259.719,339.152L-259.719,240.266C-259.719,236.368 -257.196,230.922 -254.112,228.163L-127.575,114.989C-124.491,112.231 -121.968,106.785 -121.968,102.886L-121.968,0.687C-121.968,-3.212 -119.445,-8.658 -116.361,-11.416L-99.124,-26.833C-96.04,-29.591 -89.95,-31.848 -85.592,-31.848L-33.134,-31.848C-28.776,-31.848 -22.891,-29.775 -20.058,-27.24C-17.225,-24.706 -12.384,-24.89 -9.306,-27.648L12.996,-47.595C16.08,-50.354 22.17,-52.61 26.528,-52.61L47.966,-52.61C52.324,-52.61 58.414,-54.867 61.498,-57.625L117.634,-107.833C120.718,-110.591 126.807,-112.848 131.166,-112.848L258.944,-112.848C263.303,-112.848 269.392,-115.104 272.476,-117.862L292.764,-136.008C295.849,-138.767 298.371,-144.213 298.371,-148.111L298.371,-213.6" style="fill:none;fill-rule:nonzero;stroke:black;stroke-width:1px;"/>
    <path d="M-571.557,468.917L-473.121,468.917C-468.762,468.917 -462.673,466.661 -459.589,463.902L-436.797,443.518C-433.713,440.76 -427.624,438.503 -423.265,438.503L-384.195,438.503C-379.836,438.503 -373.747,436.247 -370.663,433.488L-272.022,345.265C-268.938,342.506 -266.415,337.06 -266.415,333.162L-266.415,234.276C-266.415,230.377 -263.892,224.931 -260.808,222.173L-134.271,108.999C-131.187,106.24 -128.664,100.794 -128.664,96.896L-128.664,-5.303C-128.664,-9.202 -126.141,-14.648 -123.057,-17.406L-105.82,-32.823C-102.736,-35.582 -96.647,-37.838 -92.288,-37.838L-39.831,-37.838C-35.472,-37.838 -29.587,-35.765 -26.754,-33.231C-23.921,-30.697 -19.08,-30.88 -16.003,-33.638L6.3,-53.586C9.384,-56.344 15.473,-58.6 19.832,-58.6L41.269,-58.6C45.628,-58.6 51.717,-60.857 54.801,-63.615L110.937,-113.823C114.021,-116.581 120.111,-118.838 124.469,-118.838L252.248,-118.838C256.607,-118.838 262.696,-121.094 265.78,-123.853L286.068,-141.998C289.152,-144.757 291.675,-150.203 291.675,-154.101L291.675,-219.59" style="fill:none;fill-rule:nonzero;stroke:black;stroke-width:1px;"/>
    <path d="M-578.246,462.935L-479.81,462.935C-475.451,462.935 -469.362,460.678 -466.278,457.92L-443.487,437.536C-440.403,434.777 -434.314,432.521 -429.955,432.521L-390.884,432.521C-386.525,432.521 -380.436,430.264 -377.352,427.506L-278.711,339.282C-275.627,336.524 -273.104,331.078 -273.104,327.179L-273.104,228.294C-273.104,224.395 -270.582,218.949 -267.497,216.191L-140.96,103.016C-137.876,100.258 -135.353,94.812 -135.353,90.914L-135.353,-11.286C-135.353,-15.184 -132.831,-20.63 -129.746,-23.389L-112.509,-38.806C-109.425,-41.564 -103.336,-43.82 -98.977,-43.82L-46.52,-43.82C-42.161,-43.82 -36.277,-41.747 -33.444,-39.213C-30.61,-36.679 -25.77,-36.862 -22.692,-39.621L-0.389,-59.568C2.695,-62.326 8.784,-64.583 13.143,-64.583L34.58,-64.583C38.939,-64.583 45.028,-66.839 48.112,-69.598L104.248,-119.805C107.332,-122.564 113.421,-124.82 117.78,-124.82L245.558,-124.82C249.917,-124.82 256.006,-127.077 259.091,-129.835L279.379,-147.981C282.463,-150.739 284.986,-156.185 284.986,-160.084L284.986,-225.572" style="fill:none;fill-rule:nonzero;stroke:black;stroke-width:1px;"/>
    <path d="M-584.942,456.945L-486.506,456.945C-482.148,456.945 -476.058,454.688 -472.974,451.93L-450.183,431.545C-447.099,428.787 -441.01,426.53 -436.651,426.53L-397.58,426.53C-393.222,426.53 -387.133,424.274 -384.048,421.516L-285.408,333.292C-282.324,330.533 -279.801,325.087 -279.801,321.189L-279.801,222.303C-279.801,218.405 -277.278,212.959 -274.194,210.2L-147.657,97.026C-144.573,94.268 -142.05,88.822 -142.05,84.923L-142.05,-17.276C-142.05,-21.174 -139.527,-26.621 -136.443,-29.379L-119.206,-44.796C-116.122,-47.554 -110.033,-49.811 -105.674,-49.811L-53.216,-49.811C-48.858,-49.811 -42.973,-47.737 -40.14,-45.203C-37.307,-42.669 -32.466,-42.852 -29.388,-45.611L-7.086,-65.558C-4.002,-68.317 2.087,-70.573 6.446,-70.573L27.884,-70.573C32.242,-70.573 38.332,-72.829 41.416,-75.588L97.552,-125.796C100.636,-128.554 106.725,-130.81 111.084,-130.81L238.862,-130.81C243.221,-130.81 249.31,-133.067 252.394,-135.825L272.682,-153.971C275.767,-156.729 278.289,-162.175 278.289,-166.074L278.289,-231.563" style="fill:none;fill-rule:nonzero;stroke:black;stroke-width:1px;"/>
    <path d="M-591.633,450.96L-493.197,450.96C-488.838,450.96 -482.749,448.704 -479.665,445.945L-456.874,425.561C-453.789,422.802 -447.7,420.546 -443.342,420.546L-404.271,420.546C-399.912,420.546 -393.823,418.29 -390.739,415.531L-292.098,327.307C-289.014,324.549 -286.491,319.103 -286.491,315.204L-286.491,216.319C-286.491,212.42 -283.968,206.974 -280.884,204.216L-154.347,91.042C-151.263,88.283 -148.74,82.837 -148.74,78.939L-148.74,-23.26C-148.74,-27.159 -146.217,-32.605 -143.133,-35.363L-125.896,-50.78C-122.812,-53.539 -116.723,-55.795 -112.364,-55.795L-59.907,-55.795C-55.548,-55.795 -49.664,-53.722 -46.83,-51.188C-43.997,-48.654 -39.156,-48.837 -36.079,-51.595L-13.776,-71.543C-10.692,-74.301 -4.603,-76.557 -0.244,-76.557L21.193,-76.557C25.552,-76.557 31.641,-78.814 34.725,-81.572L90.861,-131.78C93.945,-134.538 100.034,-136.795 104.393,-136.795L232.172,-136.795C236.531,-136.795 242.62,-139.051 245.704,-141.81L265.992,-159.955C269.076,-162.714 271.599,-168.16 271.599,-172.058L271.599,-237.547" style="fill:none;fill-rule:nonzero;stroke:black;stroke-width:1px;"/>
    <path d="M-598.33,444.972L-499.894,444.972C-495.535,444.972 -489.446,442.715 -486.362,439.957L-463.571,419.573C-460.487,416.814 -454.398,414.558 -450.039,414.558L-410.968,414.558C-406.609,414.558 -400.52,412.301 -397.436,409.543L-298.795,321.319C-295.711,318.561 -293.188,313.115 -293.188,309.216L-293.188,210.331C-293.188,206.432 -290.666,200.986 -287.581,198.228L-161.044,85.054C-157.96,82.295 -155.437,76.849 -155.437,72.951L-155.437,-29.249C-155.437,-33.147 -152.915,-38.593 -149.83,-41.352L-132.593,-56.768C-129.509,-59.527 -123.42,-61.783 -119.061,-61.783L-66.604,-61.783C-62.245,-61.783 -56.361,-59.71 -53.528,-57.176C-50.694,-54.642 -45.853,-54.825 -42.776,-57.584L-20.474,-77.531C-17.389,-80.289 -11.3,-82.546 -6.941,-82.546L14.496,-82.546C18.855,-82.546 24.944,-84.802 28.028,-87.561L84.164,-137.768C87.248,-140.527 93.337,-142.783 97.696,-142.783L225.475,-142.783C229.833,-142.783 235.922,-145.039 239.007,-147.798L259.295,-165.944C262.379,-168.702 264.902,-174.148 264.902,-178.047L264.902,-243.535" style="fill:none;fill-rule:nonzero;stroke:black;stroke-width:1px;"/>
    <path d="M-605.02,438.988L-506.584,438.988C-502.225,438.988 -496.136,436.731 -493.052,433.973L-470.261,413.588C-467.177,410.83 -461.088,408.573 -456.729,408.573L-417.658,408.573C-413.299,408.573 -407.21,406.317 -404.126,403.559L-305.485,315.335C-302.401,312.576 -299.878,307.13 -299.878,303.232L-299.878,204.346C-299.878,200.448 -297.356,195.002 -294.271,192.243L-167.734,79.069C-164.65,76.311 -162.127,70.865 -162.127,66.966L-162.127,-35.233C-162.127,-39.132 -159.605,-44.578 -156.52,-47.336L-139.283,-62.753C-136.199,-65.511 -130.11,-67.768 -125.751,-67.768L-73.294,-67.768C-68.935,-67.768 -63.051,-65.694 -60.218,-63.16C-57.384,-60.626 -52.544,-60.81 -49.466,-63.568L-27.163,-83.515C-24.079,-86.274 -17.99,-88.53 -13.631,-88.53L7.806,-88.53C12.165,-88.53 18.254,-90.786 21.338,-93.545L77.474,-143.753C80.558,-146.511 86.647,-148.767 91.006,-148.767L218.785,-148.767C223.143,-148.767 229.232,-151.024 232.317,-153.782L252.605,-171.928C255.689,-174.686 258.212,-180.132 258.212,-184.031L258.212,-249.52" style="fill:none;fill-rule:nonzero;stroke:black;stroke-width:1px;"/>
</svg>
