<?xml version="1.0" encoding="UTF-8" standalone="no"?>
<!DOCTYPE svg PUBLIC "-//W3C//DTD SVG 1.1//EN" "http://www.w3.org/Graphics/SVG/1.1/DTD/svg11.dtd">
<svg width="100%" height="100%" viewBox="0 0 955 710" version="1.1" xmlns="http://www.w3.org/2000/svg" xmlns:xlink="http://www.w3.org/1999/xlink" xml:space="preserve" xmlns:serif="http://www.serif.com/" style="fill-rule:evenodd;clip-rule:evenodd;stroke-miterlimit:10;">
    <g transform="matrix(1,0,0,1,-1,0)">
        <path d="M118.907,513.243L205.259,513.243C209.083,513.243 214.425,510.986 217.13,508.228L237.124,487.843C239.829,485.085 245.171,482.829 248.994,482.829L283.269,482.829C287.093,482.829 292.434,480.572 295.14,477.814L381.671,389.59C384.377,386.831 386.59,381.385 386.59,377.487L386.59,278.601C386.59,274.703 388.803,269.257 391.509,266.498L502.512,153.324C505.218,150.566 507.431,145.12 507.431,141.221L507.431,125.769C507.431,121.871 509.644,116.425 512.35,113.666L632.912,-9.254C635.618,-12.013 640.96,-14.269 644.783,-14.269L656.498,-14.269C660.321,-14.269 665.663,-16.525 668.369,-19.284L717.613,-69.492C720.319,-72.25 725.66,-74.506 729.484,-74.506L841.577,-74.506C845.401,-74.506 850.742,-76.763 853.448,-79.521L871.245,-97.667C873.951,-100.425 876.164,-105.871 876.164,-109.77L876.164,-175.294" style="fill:none;fill-rule:nonzero;stroke:black;stroke-width:1px;"/>
    </g>
    <g transform="matrix(1,0,0,1,-1,0)">
        <path d="M125.077,519.534L211.429,519.534C215.253,519.534 220.594,517.277 223.3,514.519L243.293,494.134C245.999,491.376 251.34,489.12 255.164,489.12L289.438,489.12C293.262,489.12 298.604,486.863 301.309,484.105L387.841,395.881C390.546,393.123 392.76,387.676 392.76,383.778L392.76,284.892C392.76,280.994 394.973,275.548 397.678,272.789L508.682,159.615C511.387,156.857 513.6,151.411 513.6,147.512L513.6,132.06C513.6,128.162 515.814,122.716 518.519,119.957L639.082,-2.963C641.787,-5.722 647.129,-7.978 650.953,-7.978L662.667,-7.978C666.491,-7.978 671.833,-10.234 674.538,-12.993L723.783,-63.201C726.488,-65.959 731.83,-68.215 735.654,-68.215L847.746,-68.215C851.57,-68.215 856.912,-70.472 859.617,-73.23L877.415,-91.376C880.12,-94.134 882.334,-99.58 882.334,-103.479L882.334,-169.003" style="fill:none;fill-rule:nonzero;stroke:black;stroke-width:1px;"/>
    </g>
    <g transform="matrix(1,0,0,1,-1,0)">
        <path d="M131.247,525.825L217.599,525.825C221.423,525.825 226.765,523.568 229.47,520.81L249.463,500.425C252.169,497.667 257.511,495.411 261.334,495.411L295.609,495.411C299.432,495.411 304.774,493.154 307.48,490.396L394.011,402.172C396.717,399.414 398.93,393.967 398.93,390.069L398.93,291.183C398.93,287.285 401.143,281.839 403.849,279.08L514.852,165.906C517.558,163.148 519.771,157.702 519.771,153.803L519.771,138.351C519.771,134.453 521.984,129.007 524.689,126.248L645.252,3.328C647.958,0.569 653.299,-1.687 657.123,-1.687L668.838,-1.687C672.661,-1.687 678.003,-3.943 680.708,-6.702L729.953,-56.91C732.659,-59.668 738,-61.924 741.824,-61.924L853.917,-61.924C857.74,-61.924 863.082,-64.181 865.788,-66.939L883.585,-85.085C886.291,-87.843 888.504,-93.289 888.504,-97.188L888.504,-162.712" style="fill:none;fill-rule:nonzero;stroke:black;stroke-width:1px;"/>
    </g>
    <g transform="matrix(1,0,0,1,-1,0)">
        <path d="M137.417,532.116L223.769,532.116C227.593,532.116 232.934,529.859 235.64,527.101L255.633,506.717C258.339,503.958 263.681,501.702 267.504,501.702L301.779,501.702C305.602,501.702 310.944,499.445 313.649,496.687L400.181,408.463C402.887,405.705 405.1,400.258 405.1,396.36L405.1,297.474C405.1,293.576 407.313,288.13 410.019,285.371L521.022,172.197C523.728,169.439 525.941,163.993 525.941,160.094L525.941,144.642C525.941,140.744 528.154,135.298 530.859,132.539L651.422,9.619C654.128,6.86 659.469,4.604 663.293,4.604L675.008,4.604C678.831,4.604 684.173,2.348 686.878,-0.411L736.123,-50.618C738.829,-53.377 744.17,-55.633 747.994,-55.633L860.087,-55.633C863.91,-55.633 869.252,-57.89 871.958,-60.648L889.755,-78.794C892.461,-81.552 894.674,-86.998 894.674,-90.897L894.674,-156.421" style="fill:none;fill-rule:nonzero;stroke:black;stroke-width:1px;"/>
    </g>
    <g transform="matrix(1,0,0,1,-1,0)">
        <path d="M143.587,538.401L229.94,538.401C233.763,538.401 239.105,536.144 241.81,533.386L261.804,513.002C264.509,510.243 269.851,507.987 273.675,507.987L307.949,507.987C311.773,507.987 317.114,505.73 319.82,502.972L406.352,414.748C409.057,411.99 411.27,406.544 411.27,402.645L411.27,303.76C411.27,299.861 413.483,294.415 416.189,291.657L527.192,178.483C529.898,175.724 532.111,170.278 532.111,166.38L532.111,150.927C532.111,147.029 534.324,141.583 537.03,138.824L657.593,15.904C660.298,13.146 665.64,10.889 669.463,10.889L681.178,10.889C685.002,10.889 690.343,8.633 693.049,5.874L742.293,-44.333C744.999,-47.092 750.341,-49.348 754.164,-49.348L866.257,-49.348C870.081,-49.348 875.422,-51.605 878.128,-54.363L895.926,-72.509C898.631,-75.267 900.844,-80.713 900.844,-84.612L900.844,-150.136" style="fill:none;fill-rule:nonzero;stroke:black;stroke-width:1px;"/>
    </g>
    <g transform="matrix(1,0,0,1,-1,0)">
        <path d="M149.757,544.691L236.109,544.691C239.933,544.691 245.274,542.435 247.98,539.676L267.973,519.292C270.679,516.533 276.02,514.277 279.844,514.277L314.118,514.277C317.942,514.277 323.284,512.02 325.989,509.262L412.521,421.038C415.227,418.28 417.44,412.834 417.44,408.935L417.44,310.05C417.44,306.151 419.653,300.705 422.358,297.947L533.362,184.773C536.067,182.014 538.281,176.568 538.281,172.67L538.281,157.217C538.281,153.319 540.494,147.873 543.199,145.114L663.762,22.194C666.468,19.436 671.809,17.179 675.633,17.179L687.347,17.179C691.171,17.179 696.513,14.923 699.218,12.164L748.463,-38.043C751.168,-40.802 756.51,-43.058 760.334,-43.058L872.426,-43.058C876.25,-43.058 881.592,-45.315 884.297,-48.073L902.095,-66.219C904.801,-68.977 907.014,-74.423 907.014,-78.322L907.014,-143.846" style="fill:none;fill-rule:nonzero;stroke:black;stroke-width:1px;"/>
    </g>
    <g transform="matrix(1,0,0,1,-1,0)">
        <path d="M155.928,550.982L242.28,550.982C246.104,550.982 251.445,548.726 254.151,545.967L274.144,525.583C276.85,522.824 282.191,520.568 286.015,520.568L320.289,520.568C324.113,520.568 329.455,518.311 332.16,515.553L418.692,427.329C421.398,424.571 423.611,419.125 423.611,415.226L423.611,316.341C423.611,312.442 425.824,306.996 428.529,304.238L539.533,191.064C542.238,188.305 544.451,182.859 544.451,178.961L544.451,163.508C544.451,159.61 546.665,154.164 549.37,151.405L669.933,28.485C672.639,25.727 677.98,23.47 681.804,23.47L693.518,23.47C697.342,23.47 702.684,21.214 705.389,18.455L754.634,-31.752C757.339,-34.511 762.681,-36.767 766.505,-36.767L878.597,-36.767C882.421,-36.767 887.763,-39.024 890.468,-41.782L908.266,-59.928C910.972,-62.686 913.185,-68.132 913.185,-72.031L913.185,-137.555" style="fill:none;fill-rule:nonzero;stroke:black;stroke-width:1px;"/>
    </g>
    <g transform="matrix(1,0,0,1,-1,0)">
        <path d="M162.091,557.272L248.443,557.272C252.267,557.272 257.609,555.016 260.314,552.257L280.308,531.873C283.013,529.114 288.355,526.858 292.179,526.858L326.453,526.858C330.277,526.858 335.618,524.602 338.324,521.843L424.856,433.619C427.561,430.861 429.774,425.415 429.774,421.516L429.774,322.631C429.774,318.732 431.987,313.286 434.693,310.528L545.696,197.354C548.402,194.595 550.615,189.149 550.615,185.251L550.615,169.798C550.615,165.9 552.828,160.454 555.534,157.695L676.096,34.775C678.802,32.017 684.144,29.76 687.967,29.76L699.682,29.76C703.506,29.76 708.847,27.504 711.553,24.746L760.797,-25.462C763.503,-28.221 768.845,-30.477 772.668,-30.477L884.761,-30.477C888.585,-30.477 893.926,-32.734 896.632,-35.492L914.429,-53.638C917.135,-56.396 919.348,-61.842 919.348,-65.741L919.348,-131.265" style="fill:none;fill-rule:nonzero;stroke:black;stroke-width:1px;"/>
    </g>
    <g transform="matrix(1,0,0,1,-1,0)">
        <path d="M168.262,563.563L254.614,563.563C258.438,563.563 263.779,561.307 266.485,558.548L286.478,538.164C289.184,535.405 294.525,533.149 298.349,533.149L332.623,533.149C336.447,533.149 341.789,530.893 344.494,528.134L431.026,439.91C433.731,437.152 435.945,431.706 435.945,427.807L435.945,328.922C435.945,325.023 438.158,319.577 440.863,316.819L551.867,203.645C554.572,200.886 556.785,195.44 556.785,191.542L556.785,176.089C556.785,172.191 558.999,166.745 561.704,163.986L682.267,41.066C684.972,38.308 690.314,36.051 694.138,36.051L705.852,36.051C709.676,36.051 715.018,33.795 717.723,31.037L766.968,-19.171C769.673,-21.93 775.015,-24.186 778.839,-24.186L890.931,-24.186C894.755,-24.186 900.097,-26.443 902.802,-29.201L920.6,-47.347C923.305,-50.105 925.519,-55.551 925.519,-59.45L925.519,-124.974" style="fill:none;fill-rule:nonzero;stroke:black;stroke-width:1px;"/>
    </g>
    <g transform="matrix(1,0,0,1,-1,0)">
        <path d="M174.432,569.854L260.784,569.854C264.607,569.854 269.949,567.598 272.655,564.839L292.648,544.455C295.354,541.696 300.695,539.44 304.519,539.44L338.793,539.44C342.617,539.44 347.959,537.184 350.664,534.425L437.196,446.201C439.901,443.443 442.115,437.997 442.115,434.098L442.115,335.213C442.115,331.314 444.328,325.868 447.033,323.11L558.037,209.936C560.742,207.177 562.955,201.731 562.955,197.833L562.955,182.38C562.955,178.482 565.168,173.036 567.874,170.277L688.437,47.357C691.142,44.599 696.484,42.342 700.308,42.342L712.022,42.342C715.846,42.342 721.187,40.086 723.893,37.327L773.138,-12.88C775.843,-15.639 781.185,-17.895 785.009,-17.895L897.101,-17.895C900.925,-17.895 906.267,-20.152 908.972,-22.91L926.77,-41.056C929.475,-43.814 931.688,-49.26 931.688,-53.159L931.688,-118.683" style="fill:none;fill-rule:nonzero;stroke:black;stroke-width:1px;"/>
    </g>
    <g transform="matrix(1,0,0,1,-1,0)">
        <path d="M180.601,576.145L266.953,576.145C270.776,576.145 276.118,573.889 278.824,571.13L298.817,550.746C301.523,547.987 306.864,545.731 310.688,545.731L344.962,545.731C348.786,545.731 354.128,543.474 356.833,540.716L443.365,452.492C446.07,449.734 448.283,444.288 448.283,440.389L448.283,341.504C448.283,337.605 450.497,332.159 453.202,329.401L564.206,216.227C566.911,213.468 569.124,208.022 569.124,204.124L569.124,188.671C569.124,184.773 571.337,179.327 574.043,176.568L694.606,53.648C697.311,50.89 702.653,48.633 706.477,48.633L718.191,48.633C722.015,48.633 727.356,46.377 730.062,43.619L779.307,-6.589C782.012,-9.348 787.354,-11.604 791.178,-11.604L903.27,-11.604C907.094,-11.604 912.436,-13.861 915.141,-16.619L932.939,-34.765C935.644,-37.523 937.858,-42.969 937.858,-46.868L937.858,-112.392" style="fill:none;fill-rule:nonzero;stroke:black;stroke-width:1px;"/>
    </g>
    <g transform="matrix(1,0,0,1,-1,0)">
        <path d="M186.771,582.429L273.124,582.429C276.947,582.429 282.289,580.173 284.994,577.414L304.988,557.03C307.693,554.272 313.035,552.015 316.859,552.015L351.133,552.015C354.957,552.015 360.298,549.759 363.004,547L449.536,458.776C452.241,456.018 454.454,450.572 454.454,446.673L454.454,347.788C454.454,343.889 456.667,338.443 459.373,335.685L570.377,222.511C573.082,219.752 575.295,214.306 575.295,210.408L575.295,194.956C575.295,191.057 577.508,185.611 580.214,182.853L700.777,59.932C703.482,57.174 708.824,54.918 712.648,54.918L724.362,54.918C728.186,54.918 733.527,52.661 736.233,49.903L785.478,-0.305C788.183,-3.063 793.525,-5.32 797.349,-5.32L909.441,-5.32C913.265,-5.32 918.606,-7.576 921.312,-10.335L939.11,-28.48C941.815,-31.239 944.028,-36.685 944.028,-40.583L944.028,-106.107" style="fill:none;fill-rule:nonzero;stroke:black;stroke-width:1px;"/>
    </g>
    <g transform="matrix(1,0,0,1,-1,0)">
        <path d="M192.942,588.72L279.294,588.72C283.118,588.72 288.459,586.464 291.165,583.705L311.158,563.321C313.864,560.563 319.205,558.306 323.029,558.306L357.303,558.306C361.127,558.306 366.469,556.05 369.174,553.291L455.706,465.067C458.412,462.309 460.625,456.863 460.625,452.964L460.625,354.079C460.625,350.18 462.838,344.734 465.543,341.976L576.547,228.802C579.253,226.043 581.466,220.597 581.466,216.699L581.466,201.247C581.466,197.348 583.679,191.902 586.384,189.144L706.947,66.223C709.653,63.465 714.994,61.209 718.818,61.209L730.532,61.209C734.356,61.209 739.698,58.952 742.403,56.194L791.648,5.986C794.354,3.228 799.695,0.971 803.519,0.971L915.612,0.971C919.435,0.971 924.777,-1.285 927.482,-4.044L945.28,-22.189C947.986,-24.948 950.199,-30.394 950.199,-34.292L950.199,-99.816" style="fill:none;fill-rule:nonzero;stroke:black;stroke-width:1px;"/>
    </g>
    <g transform="matrix(1,0,0,1,-1,0)">
        <path d="M199.111,595.011L285.463,595.011C289.287,595.011 294.629,592.755 297.334,589.996L317.328,569.612C320.033,566.854 325.375,564.597 329.199,564.597L363.473,564.597C367.297,564.597 372.638,562.341 375.344,559.582L461.876,471.359C464.581,468.6 466.794,463.154 466.794,459.256L466.794,360.37C466.794,356.471 469.007,351.025 471.713,348.267L582.716,235.093C585.422,232.334 587.635,226.888 587.635,222.99L587.635,207.538C587.635,203.639 589.848,198.193 592.554,195.435L713.116,72.514C715.822,69.756 721.164,67.5 724.987,67.5L736.702,67.5C740.526,67.5 745.867,65.243 748.573,62.485L797.817,12.277C800.523,9.519 805.865,7.262 809.688,7.262L921.781,7.262C925.605,7.262 930.946,5.006 933.652,2.247L951.449,-15.898C954.155,-18.657 956.368,-24.103 956.368,-28.001L956.368,-93.525" style="fill:none;fill-rule:nonzero;stroke:black;stroke-width:1px;"/>
    </g>
    <g transform="matrix(1,0,0,1,-1,0)">
        <path d="M205.275,601.301L291.628,601.301C295.451,601.301 300.793,599.045 303.498,596.286L323.492,575.902C326.197,573.144 331.539,570.887 335.363,570.887L369.637,570.887C373.461,570.887 378.802,568.631 381.508,565.872L468.04,477.649C470.745,474.89 472.958,469.444 472.958,465.546L472.958,366.66C472.958,362.762 475.171,357.315 477.877,354.557L588.88,241.383C591.586,238.624 593.799,233.178 593.799,229.28L593.799,213.828C593.799,209.929 596.012,204.483 598.718,201.725L719.281,78.805C721.986,76.046 727.328,73.79 731.151,73.79L742.866,73.79C746.69,73.79 752.031,71.533 754.737,68.775L803.982,18.567C806.687,15.809 812.029,13.552 815.852,13.552L927.945,13.552C931.769,13.552 937.11,11.296 939.816,8.537L957.614,-9.608C960.319,-12.367 962.532,-17.813 962.532,-21.711L962.532,-87.235" style="fill:none;fill-rule:nonzero;stroke:black;stroke-width:1px;"/>
    </g>
    <g transform="matrix(1,0,0,1,-1,0)">
        <path d="M211.446,607.592L297.798,607.592C301.622,607.592 306.964,605.336 309.669,602.577L329.663,582.193C332.368,579.435 337.71,577.178 341.534,577.178L375.808,577.178C379.632,577.178 384.973,574.922 387.679,572.163L474.21,483.94C476.916,481.181 479.129,475.735 479.129,471.837L479.129,372.951C479.129,369.053 481.342,363.606 484.048,360.848L595.051,247.674C597.757,244.915 599.97,239.469 599.97,235.571L599.97,220.119C599.97,216.22 602.183,210.774 604.889,208.016L725.451,85.096C728.157,82.337 733.499,80.081 737.322,80.081L749.037,80.081C752.86,80.081 758.202,77.824 760.908,75.066L810.152,24.858C812.858,22.1 818.2,19.843 822.023,19.843L934.116,19.843C937.94,19.843 943.281,17.587 945.987,14.828L963.784,-3.317C966.49,-6.076 968.703,-11.522 968.703,-15.42L968.703,-80.944" style="fill:none;fill-rule:nonzero;stroke:black;stroke-width:1px;"/>
    </g>
    <g transform="matrix(1,0,0,1,-1,0)">
        <path d="M218.723,615.011L305.075,615.011C308.899,615.011 314.241,612.755 316.946,609.997L336.94,589.612C339.645,586.854 344.987,584.597 348.81,584.597L383.085,584.597C386.908,584.597 392.25,582.341 394.956,579.582L481.487,491.359C484.193,488.6 486.406,483.154 486.406,479.256L486.406,380.37C486.406,376.472 488.619,371.026 491.325,368.267L602.328,255.093C605.034,252.335 609.431,247.798 612.108,245.016L758.399,92.574C761.076,89.786 766.389,87.523 770.212,87.547L826.977,87.86C830.801,87.884 833.929,84.706 833.929,80.807L833.929,52.083C833.929,48.184 837.058,44.995 840.881,44.995L952.974,44.995C956.798,44.995 962.139,42.738 964.845,39.98L982.643,21.834C985.348,19.076 987.561,13.63 987.561,9.731L987.561,-55.793" style="fill:none;fill-rule:nonzero;stroke:black;stroke-width:1px;"/>
    </g>
    <g transform="matrix(1,0,0,1,-1,0)">
        <path d="M225.107,621.52L311.46,621.52C315.283,621.52 320.625,619.264 323.33,616.505L343.324,596.121C346.029,593.363 351.371,591.106 355.195,591.106L389.469,591.106C393.293,591.106 398.634,588.85 401.34,586.091L487.872,497.868C490.577,495.109 492.79,489.663 492.79,485.765L492.79,386.879C492.79,382.981 495.003,377.534 497.709,374.776L608.712,261.602C611.418,258.843 615.815,254.307 618.492,251.525L764.784,99.083C767.46,96.295 772.773,94.032 776.597,94.056L833.361,94.369C837.185,94.393 840.313,91.215 840.313,87.316L840.313,58.592C840.313,54.693 843.442,51.503 847.266,51.503L959.358,51.503C963.182,51.503 968.524,49.247 971.229,46.489L989.027,28.343C991.732,25.584 993.945,20.138 993.945,16.24L993.945,-49.284" style="fill:none;fill-rule:nonzero;stroke:black;stroke-width:1px;"/>
    </g>
    <g transform="matrix(1,0,0,1,-1,0)">
        <path d="M231.491,628.03L317.843,628.03C321.667,628.03 327.009,625.774 329.714,623.015L349.708,602.631C352.413,599.872 357.755,597.616 361.578,597.616L395.853,597.616C399.677,597.616 405.018,595.36 407.724,592.601L494.255,504.377C496.961,501.619 499.174,496.173 499.174,492.274L499.174,393.389C499.174,389.49 501.387,384.044 504.093,381.286L615.096,268.112C617.802,265.353 622.199,260.817 624.876,258.035L771.167,105.592C773.844,102.804 779.157,100.542 782.98,100.566L839.745,100.879C843.569,100.902 846.697,97.725 846.697,93.826L846.697,65.101C846.697,61.203 849.826,58.013 853.649,58.013L965.742,58.013C969.566,58.013 974.907,55.757 977.613,52.998L995.411,34.853C998.116,32.094 1000.33,26.648 1000.33,22.75L1000.33,-42.774" style="fill:none;fill-rule:nonzero;stroke:black;stroke-width:1px;"/>
    </g>
    <g transform="matrix(1,0,0,1,-1,0)">
        <path d="M237.876,634.539L324.229,634.539C328.052,634.539 333.394,632.282 336.099,629.524L356.093,609.14C358.798,606.381 364.14,604.125 367.964,604.125L402.238,604.125C406.062,604.125 411.403,601.868 414.109,599.11L500.641,510.886C503.346,508.128 505.559,502.682 505.559,498.783L505.559,399.898C505.559,395.999 507.772,390.553 510.478,387.795L621.482,274.62C624.187,271.862 628.584,267.326 631.261,264.544L777.553,112.101C780.229,109.313 785.542,107.051 789.366,107.074L846.13,107.387C849.954,107.411 853.083,104.233 853.083,100.335L853.083,71.61C853.083,67.712 856.211,64.522 860.035,64.522L972.127,64.522C975.951,64.522 981.293,62.266 983.998,59.507L1001.8,41.361C1004.5,38.603 1006.71,33.157 1006.71,29.258L1006.71,-36.266" style="fill:none;fill-rule:nonzero;stroke:black;stroke-width:1px;"/>
    </g>
    <g transform="matrix(1,0,0,1,-1,0)">
        <path d="M244.26,641.049L330.612,641.049C334.436,641.049 339.777,638.792 342.483,636.034L362.476,615.649C365.182,612.891 370.523,610.634 374.347,610.634L408.621,610.634C412.445,610.634 417.787,608.378 420.492,605.62L507.024,517.396C509.73,514.637 511.943,509.191 511.943,505.293L511.943,406.407C511.943,402.509 514.156,397.063 516.861,394.304L627.865,281.13C630.57,278.372 634.968,273.835 637.644,271.053L783.936,118.611C786.612,115.823 791.925,113.561 795.749,113.584L852.513,113.897C856.337,113.921 859.466,110.743 859.466,106.845L859.466,78.12C859.466,74.221 862.594,71.032 866.418,71.032L978.511,71.032C982.334,71.032 987.676,68.775 990.382,66.017L1008.18,47.871C1010.88,45.113 1013.1,39.667 1013.1,35.768L1013.1,-29.756" style="fill:none;fill-rule:nonzero;stroke:black;stroke-width:1px;"/>
    </g>
    <g transform="matrix(1,0,0,1,-1,0)">
        <path d="M250.651,647.557L337.003,647.557C340.827,647.557 346.169,645.301 348.874,642.542L368.868,622.158C371.573,619.4 376.915,617.143 380.739,617.143L415.013,617.143C418.837,617.143 424.178,614.887 426.884,612.128L513.416,523.905C516.121,521.146 518.334,515.7 518.334,511.802L518.334,412.916C518.334,409.018 520.547,403.572 523.253,400.813L634.256,287.639C636.962,284.881 641.359,280.344 644.036,277.562L790.327,125.12C793.004,122.332 798.317,120.069 802.14,120.093L858.905,120.406C862.729,120.43 865.857,117.252 865.857,113.353L865.857,84.629C865.857,80.73 868.986,77.541 872.81,77.541L984.902,77.541C988.726,77.541 994.067,75.284 996.773,72.526L1014.57,54.38C1017.28,51.622 1019.49,46.175 1019.49,42.277L1019.49,-23.247" style="fill:none;fill-rule:nonzero;stroke:black;stroke-width:1px;"/>
    </g>
    <g transform="matrix(1,0,0,1,-1,0)">
        <path d="M257.035,654.067L343.387,654.067C347.211,654.067 352.553,651.811 355.258,649.052L375.252,628.668C377.957,625.909 383.299,623.653 387.122,623.653L421.397,623.653C425.22,623.653 430.562,621.397 433.268,618.638L519.799,530.414C522.505,527.656 524.718,522.21 524.718,518.311L524.718,419.426C524.718,415.527 526.931,410.081 529.637,407.323L640.64,294.149C643.346,291.39 647.743,286.854 650.42,284.072L796.711,131.629C799.388,128.841 804.701,126.579 808.524,126.603L865.289,126.916C869.113,126.939 872.241,123.762 872.241,119.863L872.241,91.138C872.241,87.24 875.37,84.05 879.193,84.05L991.286,84.05C995.11,84.05 1000.45,81.794 1003.16,79.035L1020.95,60.89C1023.66,58.131 1025.87,52.685 1025.87,48.787L1025.87,-16.737" style="fill:none;fill-rule:nonzero;stroke:black;stroke-width:1px;"/>
    </g>
    <g transform="matrix(1,0,0,1,-1,0)">
        <path d="M263.42,660.576L349.772,660.576C353.596,660.576 358.937,658.32 361.643,655.561L381.636,635.177C384.342,632.418 389.683,630.162 393.507,630.162L427.782,630.162C431.605,630.162 436.947,627.906 439.652,625.147L526.184,536.923C528.89,534.165 531.103,528.719 531.103,524.82L531.103,425.935C531.103,422.036 533.316,416.59 536.021,413.832L647.025,300.658C649.731,297.899 654.128,293.363 656.804,290.581L803.096,138.138C805.773,135.35 811.085,133.088 814.909,133.112L871.674,133.425C875.497,133.448 878.626,130.27 878.626,126.372L878.626,97.647C878.626,93.749 881.754,90.559 885.578,90.559L997.671,90.559C1001.49,90.559 1006.84,88.303 1009.54,85.544L1027.34,67.399C1030.04,64.64 1032.26,59.194 1032.26,55.295L1032.26,-10.229" style="fill:none;fill-rule:nonzero;stroke:black;stroke-width:1px;"/>
    </g>
    <g transform="matrix(1,0,0,1,-1,0)">
        <path d="M269.804,667.086L356.156,667.086C359.98,667.086 365.322,664.829 368.027,662.071L388.021,641.687C390.726,638.928 396.068,636.672 399.891,636.672L434.166,636.672C437.99,636.672 443.331,634.415 446.037,631.657L532.568,543.433C535.274,540.675 537.487,535.229 537.487,531.33L537.487,432.444C537.487,428.546 539.7,423.1 542.406,420.341L653.409,307.167C656.115,304.409 660.512,299.872 663.189,297.09L809.48,144.648C812.157,141.86 817.47,139.598 821.293,139.621L878.058,139.934C881.882,139.958 885.01,136.78 885.01,132.882L885.01,104.157C885.01,100.258 888.139,97.069 891.962,97.069L1004.06,97.069C1007.88,97.069 1013.22,94.812 1015.93,92.054L1033.72,73.908C1036.43,71.15 1038.64,65.704 1038.64,61.805L1038.64,-3.719" style="fill:none;fill-rule:nonzero;stroke:black;stroke-width:1px;"/>
    </g>
    <g transform="matrix(1,0,0,1,-1,0)">
        <path d="M276.188,673.6L362.541,673.6C366.364,673.6 371.706,671.344 374.411,668.586L394.405,648.201C397.11,645.443 402.452,643.186 406.276,643.186L440.55,643.186C444.374,643.186 449.715,640.93 452.421,638.171L538.953,549.948C541.658,547.189 543.871,541.743 543.871,537.845L543.871,438.959C543.871,435.061 546.084,429.615 548.79,426.856L659.794,313.682C662.499,310.923 666.896,306.387 669.573,303.605L815.865,151.163C818.541,148.375 823.854,146.112 827.678,146.136L884.442,146.449C888.266,146.473 891.395,143.295 891.395,139.396L891.395,110.672C891.395,106.773 894.523,103.583 898.347,103.583L1010.44,103.583C1014.26,103.583 1019.6,101.327 1022.31,98.569L1040.11,80.423C1042.81,77.664 1045.03,72.218 1045.03,68.32L1045.03,2.796" style="fill:none;fill-rule:nonzero;stroke:black;stroke-width:1px;"/>
    </g>
    <g transform="matrix(1,0,0,1,-1,0)">
        <path d="M282.573,680.11L368.925,680.11C372.749,680.11 378.091,677.854 380.796,675.095L400.79,654.711C403.495,651.952 408.837,649.696 412.66,649.696L446.935,649.696C450.759,649.696 456.1,647.44 458.806,644.681L545.337,556.457C548.043,553.699 550.256,548.253 550.256,544.354L550.256,445.469C550.256,441.57 552.469,436.124 555.175,433.366L666.178,320.192C668.884,317.433 673.281,312.897 675.958,310.115L822.249,157.672C824.926,154.884 830.239,152.622 834.062,152.646L890.827,152.959C894.651,152.982 897.779,149.805 897.779,145.906L897.779,117.181C897.779,113.283 900.908,110.093 904.731,110.093L1016.82,110.093C1020.65,110.093 1025.99,107.837 1028.69,105.078L1046.49,86.933C1049.2,84.174 1051.41,78.728 1051.41,74.83L1051.41,9.306" style="fill:none;fill-rule:nonzero;stroke:black;stroke-width:1px;"/>
    </g>
    <g transform="matrix(1,0,0,1,-1,0)">
        <path d="M288.958,686.619L375.31,686.619C379.133,686.619 384.475,684.362 387.181,681.604L407.174,661.22C409.879,658.461 415.221,656.205 419.045,656.205L453.319,656.205C457.143,656.205 462.484,653.948 465.19,651.19L551.722,562.966C554.427,560.208 556.64,554.762 556.64,550.863L556.64,451.978C556.64,448.079 558.854,442.633 561.559,439.875L672.563,326.701C675.268,323.942 679.665,319.406 682.342,316.624L828.634,164.181C831.31,161.393 836.623,159.131 840.447,159.154L897.211,159.468C901.035,159.491 904.163,156.313 904.163,152.415L904.163,123.69C904.163,119.792 907.292,116.602 911.116,116.602L1023.21,116.602C1027.03,116.602 1032.37,114.346 1035.08,111.587L1052.88,93.442C1055.58,90.683 1057.8,85.237 1057.8,81.338L1057.8,15.815" style="fill:none;fill-rule:nonzero;stroke:black;stroke-width:1px;"/>
    </g>
    <g transform="matrix(1,0,0,1,-1,0)">
        <path d="M295.342,693.129L381.694,693.129C385.518,693.129 390.859,690.872 393.565,688.114L413.558,667.729C416.264,664.971 421.605,662.715 425.429,662.715L459.703,662.715C463.527,662.715 468.869,660.458 471.574,657.7L558.106,569.476C560.812,566.717 563.025,561.271 563.025,557.373L563.025,458.487C563.025,454.589 565.238,449.143 567.943,446.384L678.947,333.21C681.652,330.452 686.05,325.915 688.726,323.133L835.018,170.691C837.695,167.903 843.007,165.641 846.831,165.664L903.596,165.977C907.419,166.001 910.548,162.823 910.548,158.925L910.548,130.2C910.548,126.301 913.676,123.112 917.5,123.112L1029.59,123.112C1033.42,123.112 1038.76,120.855 1041.46,118.097L1059.26,99.951C1061.97,97.193 1064.18,91.747 1064.18,87.848L1064.18,22.324" style="fill:none;fill-rule:nonzero;stroke:black;stroke-width:1px;"/>
    </g>
    <g transform="matrix(1,0,0,1,-1,0)">
        <path d="M301.727,699.637L388.079,699.637C391.902,699.637 397.244,697.381 399.95,694.623L419.943,674.238C422.648,671.48 427.99,669.223 431.814,669.223L466.088,669.223C469.912,669.223 475.253,666.967 477.959,664.209L564.491,575.985C567.196,573.226 569.409,567.78 569.409,563.882L569.409,464.996C569.409,461.098 571.623,455.652 574.328,452.893L685.332,339.719C688.037,336.961 692.434,332.424 695.111,329.642L841.403,177.2C844.079,174.412 849.392,172.149 853.216,172.173L909.98,172.486C913.804,172.51 916.933,169.332 916.933,165.433L916.933,136.709C916.933,132.81 920.061,129.621 923.885,129.621L1035.98,129.621C1039.8,129.621 1045.14,127.364 1047.85,124.606L1065.65,106.46C1068.35,103.702 1070.56,98.256 1070.56,94.357L1070.56,28.833" style="fill:none;fill-rule:nonzero;stroke:black;stroke-width:1px;"/>
    </g>
    <g transform="matrix(1,0,0,1,-1,0)">
        <path d="M308.11,706.147L394.462,706.147C398.286,706.147 403.628,703.891 406.333,701.132L426.327,680.748C429.032,677.99 434.374,675.733 438.198,675.733L472.472,675.733C476.296,675.733 481.637,673.477 484.343,670.718L570.875,582.495C573.58,579.736 575.793,574.29 575.793,570.392L575.793,471.506C575.793,467.607 578.006,462.161 580.712,459.403L691.715,346.229C694.421,343.47 698.818,338.934 701.495,336.152L847.787,183.709C850.463,180.921 855.776,178.659 859.599,178.683L916.364,178.996C920.188,179.02 923.316,175.842 923.316,171.943L923.316,143.218C923.316,139.32 926.445,136.13 930.269,136.13L1042.36,136.13C1046.18,136.13 1051.53,133.874 1054.23,131.115L1072.03,112.97C1074.74,110.211 1076.95,104.765 1076.95,100.867L1076.95,35.343" style="fill:none;fill-rule:nonzero;stroke:black;stroke-width:1px;"/>
    </g>
    <g transform="matrix(1,0,0,1,-1,0)">
        <path d="M314.501,712.656L400.853,712.656C404.677,712.656 410.018,710.4 412.724,707.641L432.717,687.257C435.423,684.498 440.765,682.242 444.588,682.242L478.863,682.242C482.686,682.242 488.028,679.986 490.733,677.227L577.265,589.003C579.971,586.245 582.184,580.799 582.184,576.9L582.184,478.015C582.184,474.116 584.397,468.67 587.103,465.912L698.106,352.738C700.812,349.979 705.209,345.443 707.885,342.661L854.177,190.218C856.854,187.43 862.166,185.168 865.99,185.192L922.755,185.505C926.578,185.528 929.707,182.35 929.707,178.452L929.707,149.727C929.707,145.829 932.835,142.639 936.659,142.639L1048.75,142.639C1052.58,142.639 1057.92,140.383 1060.62,137.624L1078.42,119.479C1081.13,116.72 1083.34,111.274 1083.34,107.376L1083.34,41.852" style="fill:none;fill-rule:nonzero;stroke:black;stroke-width:1px;"/>
    </g>
    <g transform="matrix(1,0,0,1,-1,0)">
        <path d="M112.024,506.226L198.376,506.226C202.2,506.226 207.541,503.97 210.247,501.211L230.24,480.827C232.946,478.068 238.287,475.812 242.111,475.812L276.386,475.812C280.209,475.812 285.551,473.556 288.256,470.797L374.788,382.573C377.494,379.815 379.707,374.369 379.707,370.47L379.707,271.585C379.707,267.686 381.92,262.24 384.626,259.482L495.629,146.308C498.335,143.549 500.548,138.103 500.548,134.205L500.548,32.005C500.548,28.107 502.761,22.661 505.466,19.903L520.587,4.486C523.293,1.727 528.635,-0.529 532.458,-0.529L578.476,-0.529C582.3,-0.529 587.462,1.544 589.947,4.078C592.433,6.612 596.679,6.429 599.379,3.671L618.944,-16.277C621.649,-19.035 626.991,-21.292 630.815,-21.292L649.62,-21.292C653.444,-21.292 658.786,-23.548 661.491,-26.306L710.736,-76.514C713.441,-79.272 718.783,-81.529 722.607,-81.529L834.699,-81.529C838.523,-81.529 843.865,-83.785 846.57,-86.544L864.368,-104.689C867.074,-107.448 869.287,-112.894 869.287,-116.792L869.287,-182.316" style="fill:none;fill-rule:nonzero;stroke:black;stroke-width:1px;"/>
    </g>
    <g transform="matrix(1,0,0,1,-1,0)">
        <path d="M106.154,500.243L192.506,500.243C196.33,500.243 201.672,497.986 204.377,495.228L224.371,474.844C227.076,472.085 232.418,469.829 236.242,469.829L270.516,469.829C274.34,469.829 279.681,467.572 282.387,464.814L368.919,376.59C371.624,373.831 373.837,368.385 373.837,364.487L373.837,265.601C373.837,261.703 376.05,256.257 378.756,253.498L489.759,140.324C492.465,137.566 494.678,132.12 494.678,128.221L494.678,26.022C494.678,22.124 496.891,16.677 499.597,13.919L514.718,-1.498C517.423,-4.256 522.765,-6.512 526.589,-6.512L572.606,-6.512C576.43,-6.512 581.592,-4.439 584.078,-1.905C586.563,0.629 590.81,0.446 593.509,-2.313L613.074,-22.26C615.78,-25.019 621.121,-27.275 624.945,-27.275L643.751,-27.275C647.574,-27.275 652.916,-29.531 655.621,-32.29L704.866,-82.497C707.572,-85.256 712.913,-87.512 716.737,-87.512L828.83,-87.512C832.653,-87.512 837.995,-89.769 840.701,-92.527L858.498,-110.673C861.204,-113.431 863.417,-118.877 863.417,-122.776L863.417,-188.3" style="fill:none;fill-rule:nonzero;stroke:black;stroke-width:1px;"/>
    </g>
    <g transform="matrix(1,0,0,1,-1,0)">
        <path d="M100.28,494.253L186.632,494.253C190.456,494.253 195.798,491.997 198.503,489.239L218.497,468.854C221.202,466.096 226.544,463.839 230.368,463.839L264.642,463.839C268.466,463.839 273.807,461.583 276.513,458.825L363.045,370.601C365.75,367.842 367.963,362.396 367.963,358.498L367.963,259.612C367.963,255.714 370.176,250.268 372.882,247.509L483.885,134.335C486.591,131.577 488.804,126.131 488.804,122.232L488.804,20.033C488.804,16.134 491.017,10.688 493.723,7.93L508.844,-7.487C511.549,-10.245 516.891,-12.502 520.715,-12.502L566.732,-12.502C570.556,-12.502 575.718,-10.429 578.204,-7.894C580.689,-5.36 584.936,-5.544 587.635,-8.302L607.2,-28.249C609.906,-31.008 615.247,-33.264 619.071,-33.264L637.877,-33.264C641.7,-33.264 647.042,-35.521 649.747,-38.279L698.992,-88.487C701.698,-91.245 707.039,-93.501 710.863,-93.501L822.956,-93.501C826.779,-93.501 832.121,-95.758 834.827,-98.516L852.624,-116.662C855.33,-119.421 857.543,-124.867 857.543,-128.765L857.543,-194.289" style="fill:none;fill-rule:nonzero;stroke:black;stroke-width:1px;"/>
    </g>
    <g transform="matrix(1,0,0,1,-1,0)">
        <path d="M94.412,488.269L180.764,488.269C184.588,488.269 189.93,486.013 192.635,483.254L212.628,462.87C215.334,460.111 220.676,457.855 224.499,457.855L258.774,457.855C262.597,457.855 267.939,455.599 270.645,452.84L357.176,364.616C359.882,361.858 362.095,356.412 362.095,352.513L362.095,253.628C362.095,249.729 364.308,244.283 367.014,241.525L478.017,128.351C480.723,125.592 482.936,120.146 482.936,116.248L482.936,14.049C482.936,10.15 485.149,4.704 487.855,1.945L502.976,-13.471C505.681,-16.23 511.023,-18.486 514.846,-18.486L560.864,-18.486C564.688,-18.486 569.85,-16.413 572.335,-13.879C574.821,-11.345 579.067,-11.528 581.767,-14.286L601.332,-34.234C604.037,-36.992 609.379,-39.249 613.203,-39.249L632.008,-39.249C635.832,-39.249 641.174,-41.505 643.879,-44.263L693.124,-94.471C695.83,-97.23 701.171,-99.486 704.995,-99.486L817.088,-99.486C820.911,-99.486 826.253,-101.742 828.958,-104.501L846.756,-122.646C849.462,-125.405 851.675,-130.851 851.675,-134.749L851.675,-200.273" style="fill:none;fill-rule:nonzero;stroke:black;stroke-width:1px;"/>
    </g>
    <g transform="matrix(1,0,0,1,-1,0)">
        <path d="M88.537,482.28L174.889,482.28C178.713,482.28 184.055,480.023 186.76,477.265L206.753,456.881C209.459,454.122 214.801,451.866 218.624,451.866L252.899,451.866C256.722,451.866 262.064,449.609 264.77,446.851L351.301,358.627C354.007,355.869 356.22,350.423 356.22,346.524L356.22,247.639C356.22,243.74 358.433,238.294 361.139,235.535L472.142,122.361C474.848,119.603 477.061,114.157 477.061,110.258L477.061,8.059C477.061,4.161 479.274,-1.285 481.98,-4.044L497.101,-19.461C499.806,-22.219 505.148,-24.475 508.971,-24.475L554.989,-24.475C558.813,-24.475 563.975,-22.402 566.46,-19.868C568.946,-17.334 573.192,-17.517 575.892,-20.276L595.457,-40.223C598.162,-42.981 603.504,-45.238 607.328,-45.238L626.133,-45.238C629.957,-45.238 635.299,-47.494 638.004,-50.253L687.249,-100.46C689.955,-103.219 695.296,-105.475 699.12,-105.475L811.213,-105.475C815.036,-105.475 820.378,-107.732 823.083,-110.49L840.881,-128.636C843.587,-131.394 845.8,-136.84 845.8,-140.739L845.8,-206.263" style="fill:none;fill-rule:nonzero;stroke:black;stroke-width:1px;"/>
    </g>
    <g transform="matrix(1,0,0,1,-1,0)">
        <path d="M82.668,476.296L169.02,476.296C172.844,476.296 178.185,474.04 180.891,471.282L200.884,450.897C203.59,448.139 208.932,445.882 212.755,445.882L247.03,445.882C250.853,445.882 256.195,443.626 258.9,440.868L345.432,352.644C348.138,349.885 350.351,344.439 350.351,340.541L350.351,241.655C350.351,237.757 352.564,232.311 355.27,229.552L466.273,116.378C468.979,113.62 471.192,108.174 471.192,104.275L471.192,2.076C471.192,-1.823 473.405,-7.269 476.11,-10.027L491.231,-25.444C493.937,-28.202 499.279,-30.459 503.102,-30.459L549.12,-30.459C552.944,-30.459 558.106,-28.386 560.591,-25.852C563.077,-23.318 567.323,-23.501 570.023,-26.259L589.588,-46.206C592.293,-48.965 597.635,-51.221 601.459,-51.221L620.264,-51.221C624.088,-51.221 629.43,-53.478 632.135,-56.236L681.38,-106.444C684.085,-109.202 689.427,-111.459 693.251,-111.459L805.343,-111.459C809.167,-111.459 814.509,-113.715 817.214,-116.473L835.012,-134.619C837.717,-137.378 839.931,-142.824 839.931,-146.722L839.931,-212.246" style="fill:none;fill-rule:nonzero;stroke:black;stroke-width:1px;"/>
    </g>
    <g transform="matrix(1,0,0,1,-1,0)">
        <path d="M76.793,470.307L163.145,470.307C166.969,470.307 172.31,468.051 175.016,465.292L195.009,444.908C197.715,442.149 203.057,439.893 206.88,439.893L241.155,439.893C244.978,439.893 250.32,437.637 253.025,434.878L339.557,346.654C342.263,343.896 344.476,338.45 344.476,334.551L344.476,235.666C344.476,231.767 346.689,226.321 349.395,223.563L460.398,110.389C463.104,107.63 465.317,102.184 465.317,98.286L465.317,-3.913C465.317,-7.812 467.53,-13.258 470.235,-16.016L485.356,-31.433C488.062,-34.192 493.404,-36.448 497.227,-36.448L543.245,-36.448C547.069,-36.448 552.231,-34.375 554.716,-31.841C557.202,-29.307 561.448,-29.49 564.148,-32.248L583.713,-52.196C586.418,-54.954 591.76,-57.21 595.584,-57.21L614.389,-57.21C618.213,-57.21 623.555,-59.467 626.26,-62.225L675.505,-112.433C678.21,-115.191 683.552,-117.448 687.376,-117.448L799.468,-117.448C803.292,-117.448 808.634,-119.704 811.339,-122.463L829.137,-140.608C831.842,-143.367 834.056,-148.813 834.056,-152.711L834.056,-218.235" style="fill:none;fill-rule:nonzero;stroke:black;stroke-width:1px;"/>
    </g>
    <g transform="matrix(1,0,0,1,-1,0)">
        <path d="M70.925,464.323L157.277,464.323C161.101,464.323 166.442,462.066 169.148,459.308L189.141,438.924C191.847,436.165 197.188,433.909 201.012,433.909L235.286,433.909C239.11,433.909 244.452,431.652 247.157,428.894L333.689,340.67C336.395,337.912 338.608,332.466 338.608,328.567L338.608,229.682C338.608,225.783 340.821,220.337 343.526,217.579L454.53,104.404C457.235,101.646 459.449,96.2 459.449,92.301L459.449,-9.898C459.449,-13.796 461.662,-19.242 464.367,-22.001L479.488,-37.417C482.194,-40.176 487.535,-42.432 491.359,-42.432L537.377,-42.432C541.201,-42.432 546.363,-40.359 548.848,-37.825C551.333,-35.291 555.58,-35.474 558.28,-38.233L577.845,-58.18C580.55,-60.938 585.892,-63.195 589.715,-63.195L608.521,-63.195C612.345,-63.195 617.686,-65.451 620.392,-68.21L669.637,-118.417C672.342,-121.176 677.684,-123.432 681.508,-123.432L793.6,-123.432C797.424,-123.432 802.766,-125.689 805.471,-128.447L823.269,-146.593C825.974,-149.351 828.187,-154.797 828.187,-158.696L828.187,-224.22" style="fill:none;fill-rule:nonzero;stroke:black;stroke-width:1px;"/>
    </g>
    <g transform="matrix(1,0,0,1,-1,0)">
        <path d="M65.051,458.334L151.403,458.334C155.227,458.334 160.568,456.077 163.274,453.319L183.267,432.934C185.973,430.176 191.314,427.919 195.138,427.919L229.412,427.919C233.236,427.919 238.578,425.663 241.283,422.905L327.815,334.681C330.521,331.922 332.734,326.476 332.734,322.578L332.734,223.692C332.734,219.794 334.947,214.348 337.652,211.589L448.656,98.415C451.361,95.657 453.575,90.211 453.575,86.312L453.575,-15.887C453.575,-19.786 455.788,-25.232 458.493,-27.99L473.614,-43.407C476.32,-46.165 481.661,-48.422 485.485,-48.422L531.503,-48.422C535.327,-48.422 540.489,-46.348 542.974,-43.814C545.459,-41.28 549.706,-41.464 552.406,-44.222L571.971,-64.169C574.676,-66.928 580.018,-69.184 583.841,-69.184L602.647,-69.184C606.471,-69.184 611.812,-71.44 614.518,-74.199L663.763,-124.407C666.468,-127.165 671.81,-129.421 675.634,-129.421L787.726,-129.421C791.55,-129.421 796.892,-131.678 799.597,-134.436L817.395,-152.582C820.1,-155.34 822.313,-160.786 822.313,-164.685L822.313,-230.209" style="fill:none;fill-rule:nonzero;stroke:black;stroke-width:1px;"/>
    </g>
    <g transform="matrix(1,0,0,1,-1,0)">
        <path d="M59.181,452.35L145.533,452.35C149.357,452.35 154.699,450.094 157.404,447.335L177.398,426.951C180.103,424.192 185.445,421.936 189.268,421.936L223.543,421.936C227.366,421.936 232.708,419.68 235.414,416.921L321.945,328.697C324.651,325.939 326.864,320.493 326.864,316.594L326.864,217.709C326.864,213.81 329.077,208.364 331.783,205.606L442.786,92.432C445.492,89.673 447.705,84.227 447.705,80.329L447.705,-21.871C447.705,-25.769 449.918,-31.215 452.624,-33.974L467.745,-49.39C470.45,-52.149 475.792,-54.405 479.615,-54.405L525.633,-54.405C529.457,-54.405 534.619,-52.332 537.104,-49.798C539.59,-47.264 543.836,-47.447 546.536,-50.205L566.101,-70.153C568.806,-72.911 574.148,-75.167 577.972,-75.167L596.777,-75.167C600.601,-75.167 605.943,-77.424 608.648,-80.182L657.893,-130.39C660.599,-133.148 665.94,-135.405 669.764,-135.405L781.857,-135.405C785.68,-135.405 791.022,-137.661 793.728,-140.42L811.525,-158.565C814.231,-161.324 816.444,-166.77 816.444,-170.668L816.444,-236.192" style="fill:none;fill-rule:nonzero;stroke:black;stroke-width:1px;"/>
    </g>
    <g transform="matrix(1,0,0,1,-1,0)">
        <path d="M53.307,446.361L139.659,446.361C143.482,446.361 148.824,444.104 151.53,441.346L171.523,420.962C174.229,418.203 179.57,415.947 183.394,415.947L217.668,415.947C221.492,415.947 226.834,413.69 229.539,410.932L316.071,322.708C318.776,319.95 320.99,314.504 320.99,310.605L320.99,211.72C320.99,207.821 323.203,202.375 325.908,199.617L436.912,86.443C439.617,83.684 441.83,78.238 441.83,74.34L441.83,-27.86C441.83,-31.758 444.043,-37.204 446.749,-39.963L461.87,-55.379C464.576,-58.138 469.917,-60.394 473.741,-60.394L519.759,-60.394C523.582,-60.394 528.744,-58.321 531.23,-55.787C533.715,-53.253 537.962,-53.436 540.662,-56.195L560.226,-76.142C562.932,-78.9 568.274,-81.157 572.097,-81.157L590.903,-81.157C594.727,-81.157 600.068,-83.413 602.774,-86.172L652.019,-136.379C654.724,-139.138 660.066,-141.394 663.889,-141.394L775.982,-141.394C779.806,-141.394 785.147,-143.651 787.853,-146.409L805.651,-164.555C808.356,-167.313 810.569,-172.759 810.569,-176.658L810.569,-242.182" style="fill:none;fill-rule:nonzero;stroke:black;stroke-width:1px;"/>
    </g>
    <g transform="matrix(1,0,0,1,-1,0)">
        <path d="M47.438,440.376L133.79,440.376C137.613,440.376 142.955,438.12 145.661,435.362L165.654,414.977C168.359,412.219 173.701,409.962 177.525,409.962L211.799,409.962C215.623,409.962 220.964,407.706 223.67,404.948L310.202,316.724C312.907,313.965 315.12,308.519 315.12,304.621L315.12,205.735C315.12,201.837 317.333,196.391 320.039,193.632L431.043,80.458C433.748,77.7 435.961,72.254 435.961,68.355L435.961,-33.844C435.961,-37.743 438.174,-43.189 440.88,-45.947L456.001,-61.364C458.706,-64.122 464.048,-66.379 467.872,-66.379L513.89,-66.379C517.713,-66.379 522.875,-64.305 525.361,-61.771C527.846,-59.237 532.093,-59.42 534.793,-62.179L554.357,-82.126C557.063,-84.885 562.404,-87.141 566.228,-87.141L585.034,-87.141C588.858,-87.141 594.199,-89.397 596.905,-92.156L646.149,-142.364C648.855,-145.122 654.197,-147.378 658.02,-147.378L770.113,-147.378C773.937,-147.378 779.278,-149.635 781.984,-152.393L799.782,-170.539C802.487,-173.297 804.7,-178.744 804.7,-182.642L804.7,-248.166" style="fill:none;fill-rule:nonzero;stroke:black;stroke-width:1px;"/>
    </g>
    <g transform="matrix(1,0,0,1,-1,0)">
        <path d="M41.564,434.387L127.916,434.387C131.739,434.387 137.081,432.131 139.786,429.372L159.78,408.988C162.485,406.23 167.827,403.973 171.651,403.973L205.925,403.973C209.749,403.973 215.09,401.717 217.796,398.958L304.328,310.734C307.033,307.976 309.246,302.53 309.246,298.631L309.246,199.746C309.246,195.847 311.459,190.401 314.165,187.643L425.169,74.469C427.874,71.71 430.087,66.264 430.087,62.366L430.087,-39.833C430.087,-43.732 432.3,-49.178 435.006,-51.936L450.127,-67.353C452.833,-70.112 458.174,-72.368 461.998,-72.368L508.016,-72.368C511.839,-72.368 517.001,-70.295 519.487,-67.761C521.972,-65.227 526.219,-65.41 528.919,-68.168L548.483,-88.116C551.189,-90.874 556.53,-93.13 560.354,-93.13L579.16,-93.13C582.983,-93.13 588.325,-95.387 591.031,-98.145L640.275,-148.353C642.981,-151.111 648.323,-153.368 652.146,-153.368L764.239,-153.368C768.063,-153.368 773.404,-155.624 776.11,-158.383L793.908,-176.528C796.613,-179.287 798.826,-184.733 798.826,-188.631L798.826,-254.155" style="fill:none;fill-rule:nonzero;stroke:black;stroke-width:1px;"/>
    </g>
    <g transform="matrix(1,0,0,1,-1,0)">
        <path d="M35.694,428.404L122.046,428.404C125.87,428.404 131.211,426.147 133.917,423.389L153.91,403.004C156.616,400.246 161.957,397.989 165.781,397.989L200.055,397.989C203.879,397.989 209.221,395.733 211.926,392.975L298.458,304.751C301.164,301.992 303.377,296.546 303.377,292.648L303.377,193.762C303.377,189.864 305.59,184.418 308.295,181.659L419.299,68.485C422.004,65.727 424.218,60.281 424.218,56.382L424.218,-45.817C424.218,-49.716 426.431,-55.162 429.136,-57.92L444.257,-73.337C446.963,-76.095 452.304,-78.352 456.128,-78.352L502.146,-78.352C505.97,-78.352 511.132,-76.278 513.617,-73.744C516.102,-71.21 520.349,-71.394 523.049,-74.152L542.614,-94.099C545.319,-96.858 550.661,-99.114 554.484,-99.114L573.29,-99.114C577.114,-99.114 582.455,-101.37 585.161,-104.129L634.406,-154.337C637.111,-157.095 642.453,-159.351 646.277,-159.351L758.369,-159.351C762.193,-159.351 767.535,-161.608 770.24,-164.366L788.038,-182.512C790.743,-185.27 792.956,-190.716 792.956,-194.615L792.956,-260.104" style="fill:none;fill-rule:nonzero;stroke:black;stroke-width:1px;"/>
    </g>
    <g transform="matrix(1,0,0,1,-1,0)">
        <path d="M29.82,422.414L116.172,422.414C119.996,422.414 125.337,420.158 128.043,417.399L148.036,397.015C150.742,394.257 156.083,392 159.907,392L194.181,392C198.005,392 203.347,389.744 206.052,386.985L292.584,298.762C295.29,296.003 297.503,290.557 297.503,286.659L297.503,187.773C297.503,183.875 299.716,178.428 302.421,175.67L413.425,62.496C416.13,59.737 418.344,54.291 418.344,50.393L418.344,-51.806C418.344,-55.705 420.557,-61.151 423.262,-63.909L438.383,-79.326C441.089,-82.085 446.43,-84.341 450.254,-84.341L496.272,-84.341C500.096,-84.341 505.258,-82.268 507.743,-79.734C510.228,-77.2 514.475,-77.383 517.175,-80.141L536.74,-100.088C539.445,-102.847 544.787,-105.103 548.61,-105.103L567.416,-105.103C571.24,-105.103 576.581,-107.36 579.287,-110.118L628.532,-160.326C631.237,-163.084 636.579,-165.341 640.403,-165.341L752.495,-165.341C756.319,-165.341 761.661,-167.597 764.366,-170.356L782.164,-188.501C784.869,-191.26 787.082,-196.706 787.082,-200.604L787.082,-266.093" style="fill:none;fill-rule:nonzero;stroke:black;stroke-width:1px;"/>
    </g>
    <g transform="matrix(1,0,0,1,-1,0)">
        <path d="M23.951,416.431L110.303,416.431C114.127,416.431 119.469,414.174 122.174,411.416L142.168,391.032C144.873,388.273 150.215,386.017 154.038,386.017L188.313,386.017C192.136,386.017 197.478,383.76 200.184,381.002L286.715,292.778C289.421,290.02 291.634,284.574 291.634,280.675L291.634,181.79C291.634,177.891 293.847,172.445 296.553,169.687L407.556,56.513C410.262,53.754 412.475,48.308 412.475,44.41L412.475,-57.79C412.475,-61.688 414.688,-67.134 417.394,-69.893L432.515,-85.309C435.22,-88.068 440.562,-90.324 444.386,-90.324L490.403,-90.324C494.227,-90.324 499.389,-88.251 501.874,-85.717C504.36,-83.183 508.606,-83.366 511.306,-86.125L530.871,-106.072C533.576,-108.83 538.918,-111.087 542.742,-111.087L561.547,-111.087C565.371,-111.087 570.713,-113.343 573.418,-116.102L622.663,-166.309C625.369,-169.068 630.71,-171.324 634.534,-171.324L746.627,-171.324C750.45,-171.324 755.792,-173.58 758.498,-176.339L776.295,-194.485C779.001,-197.243 781.214,-202.689 781.214,-206.588L781.214,-272.076" style="fill:none;fill-rule:nonzero;stroke:black;stroke-width:1px;"/>
    </g>
    <g transform="matrix(1,0,0,1,-1,0)">
        <path d="M18.077,410.442L104.429,410.442C108.253,410.442 113.595,408.185 116.3,405.427L136.294,385.042C138.999,382.284 144.341,380.028 148.164,380.028L182.439,380.028C186.262,380.028 191.604,377.771 194.31,375.013L280.841,286.789C283.547,284.03 285.76,278.584 285.76,274.686L285.76,175.8C285.76,171.902 287.973,166.456 290.679,163.697L401.682,50.523C404.388,47.765 406.601,42.319 406.601,38.42L406.601,-63.779C406.601,-67.678 408.814,-73.124 411.52,-75.882L426.641,-91.299C429.346,-94.057 434.688,-96.314 438.511,-96.314L484.529,-96.314C488.353,-96.314 493.515,-94.24 496,-91.706C498.486,-89.172 502.732,-89.355 505.432,-92.114L524.997,-112.061C527.702,-114.82 533.044,-117.076 536.868,-117.076L555.673,-117.076C559.497,-117.076 564.839,-119.332 567.544,-122.091L616.789,-172.298C619.495,-175.057 624.836,-177.313 628.66,-177.313L740.753,-177.313C744.576,-177.313 749.918,-179.57 752.623,-182.328L770.421,-200.474C773.127,-203.232 775.34,-208.678 775.34,-212.577L775.34,-278.065" style="fill:none;fill-rule:nonzero;stroke:black;stroke-width:1px;"/>
    </g>
    <g transform="matrix(1,0,0,1,-1,0)">
        <path d="M12.208,404.457L98.56,404.457C102.384,404.457 107.725,402.201 110.431,399.442L130.424,379.058C133.13,376.3 138.472,374.043 142.295,374.043L176.57,374.043C180.393,374.043 185.735,371.787 188.441,369.028L274.972,280.805C277.678,278.046 279.891,272.6 279.891,268.702L279.891,169.816C279.891,165.918 282.104,160.471 284.81,157.713L395.813,44.539C398.519,41.78 400.732,36.334 400.732,32.436L400.732,-69.763C400.732,-73.662 402.945,-79.108 405.65,-81.866L420.771,-97.283C423.477,-100.042 428.819,-102.298 432.642,-102.298L478.66,-102.298C482.484,-102.298 487.646,-100.225 490.131,-97.691C492.617,-95.157 496.863,-95.34 499.563,-98.098L519.128,-118.045C521.833,-120.804 527.175,-123.06 530.999,-123.06L549.804,-123.06C553.628,-123.06 558.97,-125.317 561.675,-128.075L610.92,-178.283C613.625,-181.041 618.967,-183.298 622.791,-183.298L734.883,-183.298C738.707,-183.298 744.049,-185.554 746.754,-188.313L764.552,-206.458C767.258,-209.217 769.471,-214.663 769.471,-218.561L769.471,-284.05" style="fill:none;fill-rule:nonzero;stroke:black;stroke-width:1px;"/>
    </g>
    <g transform="matrix(1,0,0,1,-1,0)">
        <path d="M6.333,398.468L92.685,398.468C96.508,398.468 101.85,396.212 104.556,393.453L124.549,373.069C127.254,370.31 132.596,368.054 136.42,368.054L170.694,368.054C174.518,368.054 179.859,365.798 182.565,363.039L269.097,274.815C271.802,272.057 274.015,266.611 274.015,262.712L274.015,163.827C274.015,159.928 276.229,154.482 278.934,151.724L389.938,38.55C392.643,35.791 394.856,30.345 394.856,26.447L394.856,-75.753C394.856,-79.651 397.069,-85.097 399.775,-87.856L414.896,-103.272C417.602,-106.031 422.943,-108.287 426.767,-108.287L472.785,-108.287C476.608,-108.287 481.77,-106.214 484.256,-103.68C486.741,-101.146 490.988,-101.329 493.688,-104.087L513.252,-124.035C515.958,-126.793 521.299,-129.05 525.123,-129.05L543.929,-129.05C547.753,-129.05 553.094,-131.306 555.8,-134.064L605.044,-184.272C607.75,-187.031 613.092,-189.287 616.915,-189.287L729.008,-189.287C732.832,-189.287 738.173,-191.543 740.879,-194.302L758.676,-212.447C761.382,-215.206 763.595,-220.652 763.595,-224.551L763.595,-290.039" style="fill:none;fill-rule:nonzero;stroke:black;stroke-width:1px;"/>
    </g>
    <g transform="matrix(1,0,0,1,-1,0)">
        <path d="M0.464,392.485L86.816,392.485C90.64,392.485 95.981,390.228 98.687,387.47L118.68,367.085C121.386,364.327 126.727,362.071 130.551,362.071L164.825,362.071C168.649,362.071 173.991,359.814 176.696,357.056L263.228,268.832C265.934,266.073 268.147,260.627 268.147,256.729L268.147,157.843C268.147,153.945 270.36,148.499 273.065,145.74L384.069,32.566C386.774,29.808 388.988,24.362 388.988,20.463L388.988,-81.736C388.988,-85.635 391.201,-91.081 393.906,-93.839L409.027,-109.256C411.733,-112.014 417.074,-114.271 420.898,-114.271L466.916,-114.271C470.74,-114.271 475.902,-112.197 478.387,-109.663C480.873,-107.129 485.119,-107.312 487.819,-110.071L507.384,-130.018C510.089,-132.777 515.431,-135.033 519.254,-135.033L538.06,-135.033C541.884,-135.033 547.225,-137.289 549.931,-140.048L599.176,-190.256C601.881,-193.014 607.223,-195.27 611.047,-195.27L723.139,-195.27C726.963,-195.27 732.305,-197.527 735.01,-200.285L752.808,-218.431C755.513,-221.189 757.727,-226.635 757.727,-230.534L757.727,-296.022" style="fill:none;fill-rule:nonzero;stroke:black;stroke-width:1px;"/>
    </g>
</svg>
