<svg width="100%" height="100%" viewBox="0 0 177 28" fill="none" xmlns="http://www.w3.org/2000/svg">
<path fill-rule="evenodd" clip-rule="evenodd" d="M30.5356 17.4919L36.431 0.744446H38.5134L44.7607 18.3718C45.23 19.6917 45.7286 20.3369 47.1364 20.4249L49.3655 20.5422V22.478H37.5455V20.5422L39.452 20.4249C40.9771 20.3369 41.7397 19.9556 41.2118 18.3718L39.8919 14.4709H33.7913L32.8234 17.4919C32.1781 19.457 32.882 20.3369 34.3485 20.4249L36.079 20.5422V22.478H25.8135V20.5422L27.3386 20.4249C29.2744 20.2783 29.8317 19.457 30.5356 17.4919ZM34.4072 12.6231H39.276L36.9589 5.64257H36.6656L34.4072 12.6231ZM65.1401 20.5716C64.1136 20.5422 63.9669 20.3076 63.9669 19.2224V0.744457L57.3383 1.12575V2.97354L59.3328 3.0322C60.7113 3.06153 61.1219 3.38416 61.1219 4.88V9.92477H60.8286C59.9487 7.90099 58.4529 6.72779 56.1651 6.72779C52.5575 6.72779 49.4192 9.69013 49.4192 14.8229C49.4192 19.897 52.2349 22.918 55.8132 22.918C58.2182 22.918 60.066 21.6275 61.0339 19.0757H61.3566V22.5954L67.2519 22.478V20.6302L65.1401 20.5716ZM56.6344 20.8649C54.3467 20.8649 52.7628 18.8998 52.7628 14.8522C52.7628 10.746 54.288 8.75156 56.6637 8.75156C58.2769 8.75156 59.5967 9.80745 60.3887 11.3326C60.9166 12.3592 61.0046 13.6497 61.0046 14.8229C61.0046 16.3774 60.8286 17.4919 60.3007 18.4598C59.4501 19.9556 58.3062 20.8649 56.6344 20.8649ZM118.189 2.88555C118.189 4.05876 119.069 4.93866 120.271 4.93866C121.474 4.93866 122.353 4.05876 122.353 2.88555C122.353 1.71235 121.474 0.832449 120.271 0.832449C119.069 0.832449 118.189 1.71235 118.189 2.88555ZM115.637 22.478H125.14V20.6302L123.233 20.5716C122.207 20.5422 121.884 20.3369 121.884 19.2811V6.81578L115.402 7.16774V9.01554L117.103 9.0742C118.482 9.13286 118.893 9.42616 118.893 10.922V19.2811C118.893 20.3369 118.599 20.5422 117.543 20.5716L115.637 20.6302V22.478ZM156.02 17.1106C155.697 20.6302 152.852 22.918 149.743 22.918C145.725 22.918 142.323 19.5744 142.323 14.8229C142.323 10.2181 145.813 6.72779 149.362 6.72779C153.82 6.72779 156.166 10.5114 156.166 15.2042H145.696C145.754 17.6092 146.194 19.2517 147.074 20.1316C147.807 20.8355 148.482 21.1582 149.86 21.1582C152.148 21.1582 153.82 19.3984 154.201 17.1106H156.02ZM149.362 8.42893C148.365 8.42893 147.661 8.75156 147.133 9.2795C146.341 10.0714 145.784 11.5966 145.696 13.6497H152.647C152.617 11.4499 152.471 10.0714 151.679 9.2795C151.151 8.75156 150.388 8.42893 149.362 8.42893ZM139.245 10.5407L134.435 22.654H132.059L127.454 10.5407C127.102 9.60213 126.809 9.13285 125.372 9.07419L123.993 9.01553V7.16773H133.35V9.01553L131.531 9.07419C130.71 9.10352 130.329 9.39682 130.739 10.5407L133.672 18.8704H133.966L137.163 10.57C137.485 9.69012 137.192 9.10352 136.107 9.07419L134.582 9.01553V7.16773H142.501V9.01553L140.946 9.07419C140.008 9.10352 139.626 9.60213 139.245 10.5407ZM108.106 1.88833V7.16774H113.942V9.10352H108.106V17.9612C108.106 20.5422 109.132 20.9235 110.54 20.9235C112.652 20.9235 112.945 19.5744 112.945 16.8173V15.0575H114.793V16.9346C114.793 21.3635 113.444 22.918 109.924 22.918C106.492 22.918 105.114 21.1288 105.114 17.9612V9.10352H102.093V7.49037C105.466 6.69845 106.375 4.87999 106.58 1.88833H108.106ZM93.3473 27.0828V25.2351L91.3235 25.1764C90.2969 25.1471 89.9743 24.9418 89.9743 23.8859V20.0143H90.1796C91.0595 21.8914 92.5847 22.918 94.7551 22.918C98.3627 22.918 101.589 19.9556 101.589 14.8229C101.589 9.74878 98.6853 6.72779 95.1071 6.72779C92.79 6.72779 91.0302 7.93032 90.033 10.2767H89.8277L89.681 6.81578L83.4924 7.16774V9.01553L85.1935 9.07419C86.572 9.13285 86.9826 9.42615 86.9826 10.922V23.8859C86.9826 24.9418 86.6893 25.1471 85.6335 25.1764L83.727 25.2351V27.0828H93.3473ZM94.3445 8.75156C96.6322 8.75156 98.216 10.7753 98.216 14.8229C98.216 18.9291 96.6909 20.8942 94.3151 20.8942C93.2593 20.8942 92.3794 20.4543 91.6754 19.7503C90.6196 18.6945 90.033 16.964 90.033 14.8229C90.033 12.5938 90.6782 11.01 91.6754 9.98342C92.4087 9.22084 93.3473 8.75156 94.3445 8.75156ZM84.3305 18.0492C84.3305 21.0409 83.304 22.918 80.6936 22.918C78.0539 22.918 77.3206 21.5981 77.3206 19.8383V19.457H77.1153C76.1474 21.5981 74.3583 22.918 72.1585 22.918C69.7828 22.918 67.847 21.6275 67.847 19.2517C67.847 16.4947 69.3135 15.5561 73.8597 13.855C74.3583 13.6497 76.0301 13.0924 77.174 12.7404V11.2446C77.174 9.2795 76.3234 8.57558 74.153 8.57558C72.8624 8.57558 71.6306 8.83955 70.8093 9.5728C71.6013 10.0128 72.0999 10.6287 72.0999 11.5379C72.0999 12.5645 71.3666 13.4444 70.1641 13.4444C68.8736 13.4444 68.0816 12.5351 68.0816 11.1566C68.0816 8.83955 70.868 6.72779 74.6516 6.72779C77.9659 6.72779 80.1656 8.19429 80.1656 11.098V19.2811C80.1656 20.5422 80.5469 20.8942 81.1922 20.8942C81.9548 20.8942 82.4827 19.9263 82.4827 17.8146V16.7293H84.3305V18.0492ZM71.1026 18.8411C71.1026 20.3076 72.0412 20.8649 73.1558 20.8649C75.0035 20.8649 77.174 18.5478 77.174 15.7321V14.207C76.4114 14.5296 75.5315 14.8815 75.0035 15.0869C72.1292 16.2014 71.1026 16.9933 71.1026 18.8411ZM171.646 0.744792H169.89V10.1304H176.366V8.64212H171.646V0.744792ZM157.353 0.744812H160.155L162.541 7.52927C162.658 7.87788 162.738 8.16392 162.783 8.38739C162.801 8.33376 162.814 8.28012 162.823 8.22649C162.85 8.11923 162.877 8.00749 162.903 7.89129C162.939 7.77509 162.979 7.65442 163.024 7.52927L165.317 0.744812H168.092V10.1304H166.403V3.81525C166.403 3.18954 166.412 2.74261 166.43 2.47445L163.855 10.1304H161.71L158.988 2.47445C159.015 2.88563 159.029 3.33256 159.029 3.81525V10.1304H157.353V0.744812ZM14.8781 0.744812C15.5063 0.744812 16.0868 1.07996 16.4009 1.62401L18.5756 5.39058C18.8897 5.93464 18.8897 6.60495 18.5756 7.149L17.0123 9.85662C16.6095 10.5543 17.113 11.4264 17.9186 11.4264H21.1128C21.741 11.4264 22.3215 11.7616 22.6356 12.3056L24.8103 16.0722C25.1244 16.6163 25.1244 17.2866 24.8103 17.8306L22.6356 21.5972C22.3215 22.1413 21.741 22.4764 21.1128 22.4764H16.7635C16.1353 22.4764 15.5548 22.1413 15.2407 21.5972L13.066 17.8306C12.7519 17.2866 12.7519 16.6163 13.066 16.0722L14.6293 13.3646C15.0321 12.6669 14.5286 11.7948 13.7229 11.7948L10.5288 11.7948C9.90054 11.7948 9.32005 11.4596 9.00594 10.9156L6.83129 7.149C6.51718 6.60495 6.51717 5.93464 6.83129 5.39059L9.00594 1.62401C9.32005 1.07996 9.90054 0.744812 10.5288 0.744812H14.8781ZM5.77568 11.3667C3.71225 11.3667 1.80552 12.4675 0.7738 14.2545C-0.257933 16.0415 -0.257933 18.2432 0.773799 20.0302C1.80552 21.8172 3.71225 22.918 5.77569 22.918C7.83912 22.918 9.74585 21.8172 10.7776 20.0302C11.8093 18.2432 11.8093 16.0415 10.7776 14.2545C9.74585 12.4675 7.83912 11.3667 5.77568 11.3667Z" fill="currentColor"/>
</svg>
