<svg width="2542" height="350" viewBox="0 0 2542 350" fill="none" xmlns="http://www.w3.org/2000/svg">
<g clip-path="url(#clip0_3039_5781)">
<mask id="mask0_3039_5781" style="mask-type:luminance" maskUnits="userSpaceOnUse" x="0" y="0" width="2542" height="350">
<path d="M2541.13 0H0V350H2541.13V0Z" fill="white"/>
</mask>
<g mask="url(#mask0_3039_5781)">
<path d="M304.348 0H45.6522C20.4392 0 0 20.4392 0 45.6522V304.348C0 329.561 20.4392 350 45.6522 350H304.348C329.561 350 350 329.561 350 304.348V45.6522C350 20.4392 329.561 0 304.348 0Z" fill="black"/>
<path d="M484.081 105.316L533.379 241.851H535.324L584.623 105.316H605.705L544.73 267.51H523.974L463 105.316H484.081Z" fill="black" stroke="black" stroke-width="18"/>
<path d="M797.949 186.412C797.949 203.52 794.792 218.303 788.469 230.763C782.138 243.223 773.464 252.832 762.439 259.591C751.407 266.348 738.814 269.728 724.655 269.728C710.495 269.728 697.895 266.348 686.87 259.591C675.842 252.832 667.166 243.223 660.843 230.763C654.518 218.303 651.355 203.52 651.355 186.412C651.355 169.306 654.518 154.523 660.843 142.063C667.166 129.601 675.842 119.992 686.87 113.234C697.895 106.477 710.495 103.098 724.655 103.098C738.814 103.098 751.407 106.477 762.439 113.234C773.464 119.992 782.138 129.601 788.469 142.063C794.792 154.523 797.949 169.306 797.949 186.412ZM778.494 186.412C778.494 172.368 776.089 160.515 771.273 150.852C766.518 141.191 760.058 133.879 751.894 128.916C743.79 123.952 734.706 121.47 724.655 121.47C714.596 121.47 705.488 123.952 697.332 128.916C689.222 133.879 682.763 141.191 677.95 150.852C673.194 160.515 670.815 172.368 670.815 186.412C670.815 200.456 673.194 212.311 677.95 221.972C682.763 231.635 689.222 238.947 697.332 243.91C705.488 248.873 714.596 251.355 724.655 251.355C734.706 251.355 743.79 248.873 751.894 243.91C760.058 238.947 766.518 231.635 771.273 221.972C776.089 212.311 778.494 200.456 778.494 186.412Z" fill="black" stroke="black" stroke-width="18"/>
<path d="M856.789 267.51V105.316H876.899V250.087H954.089V267.51H856.789Z" fill="black" stroke="black" stroke-width="18"/>
<path d="M982.332 122.738V105.316H1106.87V122.738H1054.65V267.51H1034.56V122.738H982.332Z" fill="black" stroke="black" stroke-width="18"/>
<path d="M1263.67 267.511L1214.36 130.974H1212.42L1163.12 267.511H1142.04L1203.01 105.315H1223.76L1284.75 267.511H1263.67Z" fill="black" stroke="black" stroke-width="18"/>
<path d="M1436.91 152.174C1436.91 152.174 1435.77 145.891 1432.86 141.666C1430 137.389 1426.57 133.746 1422.56 130.736C1418.62 127.727 1414.12 125.431 1409.1 123.847C1404.07 122.263 1398.57 121.47 1392.57 121.47C1382.73 121.47 1373.78 123.952 1365.73 128.916C1357.67 133.879 1351.27 141.191 1346.51 150.852C1341.75 160.515 1339.38 172.368 1339.38 186.412C1339.38 200.456 1341.78 212.311 1346.6 221.972C1351.41 231.635 1357.91 238.947 1366.13 243.91C1374.35 248.873 1383.59 251.355 1393.86 251.355C1403.37 251.355 1411.75 249.374 1419 245.415C1426.29 241.402 1431.97 235.752 1436.02 228.466C1440.13 221.128 1442.19 212.496 1442.19 202.569L1448.36 203.836H1398.4V195.124V190.217H1461.65C1461.65 190.217 1461.65 204.948 1461.65 211.445C1461.65 217.943 1458.73 228.809 1452.88 238.682C1447.1 248.556 1439.1 256.211 1428.89 261.649C1418.72 267.036 1407.05 269.728 1393.86 269.728C1379.16 269.728 1366.24 266.348 1355.1 259.591C1344.02 252.832 1335.37 243.223 1329.15 230.763C1323 218.303 1319.91 203.52 1319.91 186.412C1319.91 173.582 1321.66 162.046 1325.19 151.803C1328.76 141.507 1333.78 132.744 1340.27 125.509C1346.75 118.276 1354.43 112.733 1363.29 108.878C1372.16 105.024 1381.91 103.098 1392.57 103.098C1401.32 103.098 1409.48 104.39 1417.05 106.977C1424.68 109.511 1434.76 113.236 1440.72 117.935C1449.41 124.67 1459.74 136.956 1459.74 152.174H1436.91Z" fill="black" stroke="black" stroke-width="18"/>
<path d="M1522.5 267.51V105.316H1622.72V122.738H1542.61V177.543H1617.52V194.967H1542.61V250.087H1624.02V267.51H1522.5Z" fill="black" stroke="black" stroke-width="18"/>
<path d="M1806.63 271.181V106.522H1864.08C1877.41 106.522 1888.32 108.854 1896.78 113.519C1905.31 118.126 1911.61 124.371 1915.71 132.253C1919.81 140.129 1921.85 148.922 1921.85 158.621C1921.85 168.325 1919.81 177.139 1915.71 185.074C1911.67 193.007 1905.42 199.332 1896.95 204.048C1888.47 208.709 1877.63 211.042 1864.41 211.042H1823.23V193.354H1863.74C1872.88 193.354 1880.2 191.829 1885.74 188.769C1891.27 185.716 1895.29 181.588 1897.77 176.391C1900.32 171.137 1901.6 165.213 1901.6 158.621C1901.6 152.029 1900.32 146.132 1897.77 140.935C1895.29 135.733 1891.24 131.662 1885.67 128.714C1880.07 125.712 1872.65 124.213 1863.41 124.213H1827.22V271.181H1806.63Z" fill="black" stroke="black" stroke-width="18"/>
<path d="M1969.14 268.742H1947.39L2010.3 104.084H2031.72L2094.63 268.742H2072.88L2021.68 130.135H2020.34L1969.14 268.742ZM1977.18 204.423H2064.84V222.108H1977.18V204.423Z" fill="black" stroke="black" stroke-width="18"/>
<path d="M2151.7 268.742V104.084H2209.04C2222.3 104.084 2233.17 106.284 2241.69 110.675C2250.2 115.018 2256.49 120.994 2260.58 128.608C2264.66 136.216 2266.71 144.873 2266.71 154.577C2266.71 164.275 2264.66 172.879 2260.58 180.382C2256.49 187.89 2250.21 193.781 2241.77 198.073C2233.32 202.305 2222.53 204.423 2209.37 204.423H2162.97V186.415H2208.72C2217.77 186.415 2225.06 185.126 2230.58 182.555C2236.16 179.981 2240.19 176.338 2242.68 171.62C2245.22 166.85 2246.5 161.168 2246.5 154.577C2246.5 147.985 2245.22 142.219 2242.68 137.29C2240.13 132.358 2236.08 128.55 2230.5 125.871C2224.92 123.138 2217.55 121.775 2208.37 121.775H2172.26V268.742H2151.7ZM2231.57 194.776L2273.34 268.742H2249.47L2208.37 194.776H2231.57Z" fill="black" stroke="black" stroke-width="18"/>
<path d="M2330.4 268.742V104.084H2350.99V185.768H2352.99L2429.39 104.084H2456.3L2384.88 178.375L2456.3 268.742H2431.38L2372.25 192.202L2350.99 215.359V268.742H2330.4Z" fill="black" stroke="black" stroke-width="18"/>
<path fill-rule="evenodd" clip-rule="evenodd" d="M177.42 235.161C176.658 236.508 174.728 236.508 173.964 235.161L111.91 125.6C111.155 124.266 112.112 122.61 113.638 122.61H124.894C125.607 122.61 126.268 122.995 126.622 123.62L153.973 171.914C154.736 173.26 156.666 173.26 157.429 171.914L166.995 155.027C167.343 154.413 167.343 153.66 166.995 153.047L138.474 102.692C138.121 102.068 137.461 101.682 136.746 101.682H78.0774C76.5518 101.682 75.5945 103.339 76.3494 104.672L173.964 277.017C174.728 278.364 176.658 278.364 177.42 277.017L223.137 196.303C223.892 194.969 222.935 193.313 221.409 193.313H202.279C201.565 193.313 200.905 193.698 200.551 194.323L177.42 235.161Z" fill="white"/>
<path fill-rule="evenodd" clip-rule="evenodd" d="M221.09 157.009C220.736 157.634 220.076 158.019 219.362 158.019H208.108C206.582 158.019 205.624 156.363 206.38 155.03L224.168 123.621C224.522 122.997 225.182 122.611 225.896 122.611H237.151C238.677 122.611 239.634 124.268 238.879 125.601L221.09 157.009ZM191.732 138.254L163.582 187.953C163.236 188.566 163.236 189.319 163.582 189.933L173.37 207.208C174.132 208.555 176.062 208.555 176.825 207.208L192.039 180.347C192.393 179.722 193.052 179.337 193.767 179.337H200.019H230.994C231.709 179.337 232.368 178.951 232.722 178.327L274.439 104.672C275.194 103.339 274.237 101.682 272.711 101.682H213.323C212.6 101.682 211.935 102.076 211.584 102.712L204.686 115.216L191.732 138.254Z" fill="white"/>
</g>
</g>
<defs>
<clipPath id="clip0_3039_5781">
<rect width="2541.13" height="350" fill="white"/>
</clipPath>
</defs>
</svg>
