<svg id="weka-logo" width="300" height="62" xmlns="http://www.w3.org/2000/svg" version="1.1" viewBox="0 0 738.7 152.5">
      <path fill="#7c03ec" d="M161.2,0h42.5c3.1,0,5.7,2.5,5.7,5.7v42.5c0,5.1-6.1,7.6-9.7,4l-42.5-42.5C153.6,6.1,156.2,0,161.2,0h0Z"/>
      <path fill="#7c03ec" d="M200.8,95L107.6,1.7c-3.7-3.7-10.1-1.1-10.1,4.1v30.9c0,7.8,3.1,15.2,8.6,20.7l93.2,93.3c3.7,3.7,10.1,1.1,10.1-4.1v-30.9c0-7.8-3.1-15.2-8.6-20.7h0Z"/>
      <path fill="#7c03ec" d="M103.3,95L10.1,1.7C6.4-2,0,.7,0,5.9v30.9C0,44.5,3.1,52,8.6,57.4l93.2,93.3c3.7,3.7,10.1,1.1,10.1-4.1v-30.9c0-7.8-3.1-15.2-8.6-20.7h0Z"/>
      <path fill="currentColor" d="M688.6,29.2h-15.5l-43.2,93.9h21.1l10-21.9h39.2l9.9,21.9h21.6l-43.2-93.9h0ZM669.4,82.5l11.2-24.7,11.2,24.7h-22.4Z"/>
      <path fill="currentColor" d="M593.8,29.2l-41.3,42.3V29.2h-20v93.9h20v-25.5l12.4-12.4,30.5,37.9h25.4l-41.8-51.8,41.9-42.1h-27.1Z"/>
      <path fill="currentColor" d="M456,85.3h46.3v-19h-46.3v-18.1h51.6v-19h-71.6v94h71.6v-19h-51.6v-18.8Z"/>
      <path fill="currentColor" d="M380.7,87.5l-19.5-58.3h-15.3l-19.5,58.3-20.3-58.3h-21.4l33.8,93.9h15.3l19.5-56.6,19.4,56.6h15.4l33.8-93.9h-21l-20.3,58.3Z"/>
      <path fill="currentColor" d="M731.1,41c.4-.5.5-1.2.5-2s-.2-1.4-.5-2c-.3-.5-.8-.9-1.4-1.2-.6-.3-1.1-.4-1.7-.4h-5.4v10.9h2.7v-3.7h2l1.8,3.7h3l-2.1-4.2c.5-.3.9-.6,1.2-1.1h0ZM725.3,37.4h2c.3,0,.7.1,1,.3.3.2.5.6.5,1.2s-.2,1-.5,1.3c-.3.3-.7.4-1.1.4h-1.9v-3.3h0Z"/>
      <path fill="currentColor" d="M737.8,36.4c-.6-1.4-1.5-2.7-2.5-3.8-1.1-1.1-2.3-1.9-3.8-2.5-1.4-.6-2.9-.9-4.6-.9s-3.2.3-4.6.9c-1.4.6-2.7,1.4-3.8,2.5-1.1,1.1-1.9,2.3-2.5,3.8-.6,1.4-.9,2.9-.9,4.6s.3,3.2.9,4.6c.6,1.4,1.4,2.7,2.5,3.8,1.1,1.1,2.3,1.9,3.8,2.5,1.4.6,3,.9,4.6.9s3.2-.3,4.6-.9c1.4-.6,2.7-1.5,3.8-2.5,1.1-1.1,1.9-2.3,2.5-3.8.6-1.4.9-2.9.9-4.6s-.3-3.2-.9-4.6ZM734.5,45.4c-.8,1.3-1.8,2.4-3.2,3.2-1.3.8-2.8,1.2-4.4,1.2s-3.1-.4-4.4-1.2c-1.3-.8-2.4-1.8-3.2-3.2-.8-1.3-1.2-2.8-1.2-4.4s.4-3.1,1.2-4.4c.8-1.3,1.8-2.4,3.2-3.2,1.3-.8,2.8-1.2,4.4-1.2s3.1.4,4.4,1.2c1.3.8,2.4,1.8,3.2,3.2.8,1.3,1.2,2.8,1.2,4.4s-.4,3.1-1.2,4.4h0Z"/>
</svg>
